<svg xmlns="http://www.w3.org/2000/svg" width="125" height="28"> <g fill="none" fill-rule="nonzero"> <g fill="#008EFF"> <path d="M8 5.6v5.8l-5 2.9V8.5l5-2.9zm3-5.2L0 6.8v12.8l11-6.4V.4zM16 5.6l5 2.9v5.8l-5-2.9V5.6zM13 .4v12.7l11 6.4V6.8L13 .4zM12 18.3l5 2.9-5 2.9-5-2.9 5-2.9zm0-3.4L1.1 21.3 12 27.6l10.9-6.3L12 14.9z"/> </g> <g fill="#000"> <path d="M39.9 7H30l1 2.6h8.8c.9 0 1.6.7 1.6 1.6 0 .9-.7 1.6-1.6 1.6H31V21h2.6v-5.7h6.2c2.3 0 4.1-1.9 4.1-4.1 0-2.2-1.7-4.2-4-4.2zM59 11.1C59 8.9 57.2 7 54.9 7H45l1 2.6h8.8c.9 0 1.6.7 1.6 1.6 0 .9-.7 1.6-1.6 1.6H46V21h2.6v-5.7h1.7L56 21h3l-5.7-5.7h1.6c2.3 0 4.1-1.9 4.1-4.2zM69.9 7h-4.7a4.1 4.1 0 0 0-4.1 4.1v5.7c0 2.3 1.9 4.1 4.1 4.1h4.7c2.3 0 4.1-1.9 4.1-4.1v-5.7A4 4 0 0 0 69.9 7zm1.6 9.9c0 .9-.7 1.6-1.6 1.6h-4.7c-.9 0-1.6-.7-1.6-1.6v-5.7c0-.9.7-1.6 1.6-1.6h4.7c.9 0 1.6.7 1.6 1.6v5.7zM122.3 7v4.1c0 .9-.7 1.6-1.6 1.6H116c-.9 0-1.6-.7-1.6-1.6V7h-2.6v4.1c0 2.3 1.9 4.1 4.1 4.1h1V21h2.6v-5.7h1c2.3 0 4.1-1.9 4.1-4.1V7h-2.3zM85 7h-8.8v14H85c2.3 0 4.1-1.9 4.1-4.1v-5.7C89.1 8.9 87.3 7 85 7zm1.5 9.9c0 .9-.7 1.6-1.6 1.6h-6.2V9.6H85c.9 0 1.6.7 1.6 1.6l-.1 5.7zM101 9.6h7.3l1.6-2.6H101a4.1 4.1 0 0 0-4.1 4.1V16.8c0 2.3 1.9 4.1 4.1 4.1h8.8v-8.3h-3.4l-1.6 2.6h2.4v3.1H101c-.9 0-1.6-.7-1.6-1.6V11c.1-.7.8-1.4 1.6-1.4zM91.7 7h2.6v14h-2.6z"/> </g> </g></svg>
