<?xml version="1.0" encoding="UTF-8"?><svg version="1.1" viewBox="0 0 28 20" xmlns="http://www.w3.org/2000/svg"><title>disc</title><desc>Created with Sketch.</desc><g fill="none" fill-rule="evenodd"><g transform="translate(-1285 -260)" fill-rule="nonzero"><g transform="translate(1085 260)"><g transform="translate(200)"><path id="Shape" d="m26.1 20h-24.4c-0.9 0-1.7-0.8-1.7-1.7v-16.6c0-0.9 0.8-1.7 1.7-1.7h24.4c0.9 0 1.7 0.8 1.7 1.7v16.6c0 0.9-0.8 1.7-1.7 1.7z" fill="#fff"/><path id="a" d="m20.7 10c0-1.1 0.9-1.9 2-1.9 0.6 0 1 0.2 1.5 0.6v-1.8c-0.6-0.3-1.1-0.4-1.6-0.4-2 0-3.6 1.5-3.6 3.5s1.6 3.5 3.6 3.5c0.6 0 1.1-0.1 1.7-0.4v-1.8c-0.5 0.4-0.9 0.6-1.4 0.6-1.3 0-2.2-0.8-2.2-1.9zm-4.7-0.8c-0.9-0.3-1.1-0.5-1.1-0.8 0-0.4 0.5-0.7 1.1-0.7 0.4 0 0.8 0.2 1.2 0.5l0.7-0.9c-0.6-0.5-1.4-0.7-2.2-0.7-1.3 0-2.3 0.8-2.3 1.9 0 0.9 0.5 1.4 1.8 1.8 0.6 0.2 0.9 0.3 1 0.4 0.3 0.2 0.4 0.4 0.4 0.7 0 0.5-0.5 0.9-1.1 0.9-0.7 0-1.3-0.3-1.6-0.9l-1 0.8c0.7 0.9 1.5 1.3 2.6 1.3 1.5 0 2.6-0.9 2.6-2.2 0-1.1-0.5-1.6-2.1-2.1zm-5.7 4.3h1.7v-7h-1.7v7zm-3.2-2.2c-0.4 0.3-0.9 0.4-1.6 0.4h-0.4v-3.4h0.3c0.8 0 1.2 0.1 1.6 0.4 0.5 0.3 0.7 0.8 0.7 1.3s-0.2 1-0.6 1.3zm-1.6-4.8h-2.1v7h2.1c1.1 0 1.9-0.2 2.6-0.8 0.9-0.7 1.4-1.7 1.4-2.7 0-2.1-1.7-3.5-4-3.5z" fill="#000"/><path d="m12.8 20h13.3c0.9 0 1.7-0.8 1.7-1.7v-5.1l-15 6.8z" fill="#FC6722"/></g></g></g></g></svg>
