<?xml version="1.0" encoding="UTF-8"?>
<svg width="24px" height="24px" viewBox="0 0 24 24" version="1.1" xmlns="http://www.w3.org/2000/svg" xmlns:xlink="http://www.w3.org/1999/xlink">
    <title>enterprise</title>
    <g id="Selected" stroke="none" stroke-width="1" fill="none" fill-rule="evenodd">
        <g id="Account-menu" transform="translate(-1392, -389)">
            <g id="enterprise" transform="translate(1392, 389)">
                <rect id="Rectangle" fill="#49463D" fill-rule="nonzero" x="6" y="6" width="1.5" height="3"></rect>
                <rect id="Rectangle" fill="#49463D" fill-rule="nonzero" x="6" y="10.5" width="1.5" height="3"></rect>
                <rect id="Rectangle" fill="#49463D" fill-rule="nonzero" x="10.5" y="6" width="1.5" height="3"></rect>
                <rect id="Rectangle" fill="#49463D" fill-rule="nonzero" x="10.5" y="10.5" width="1.5" height="3"></rect>
                <rect id="Rectangle" fill="#49463D" fill-rule="nonzero" x="6" y="15" width="1.5" height="3"></rect>
                <rect id="Rectangle" fill="#49463D" fill-rule="nonzero" x="10.5" y="15" width="1.5" height="3"></rect>
                <path d="M22.5,10.5 C22.5,9.67157288 21.8284271,9 21,9 L16.5,9 L16.5,3 C16.5,2.17157288 15.8284271,1.5 15,1.5 L3,1.5 C2.17157288,1.5 1.5,2.17157288 1.5,3 L1.5,22.5 L22.5,22.5 L22.5,10.5 Z M3,3 L15,3 L15,21 L3,21 L3,3 Z M16.5,21 L16.5,10.5 L21,10.5 L21,21 L16.5,21 Z" id="Shape" fill="#49463D" fill-rule="nonzero"></path>
                <rect id="_Transparent_Rectangle_" x="0" y="0" width="24" height="24"></rect>
            </g>
        </g>
    </g>
</svg>