<?xml version="1.0" encoding="UTF-8"?><svg width="24px" height="24px" viewBox="0 0 24 24" version="1.1" xmlns="http://www.w3.org/2000/svg" xmlns:xlink="http://www.w3.org/1999/xlink"> <title>face</title> <desc>Created with Sketch.</desc> <g id="Symbol" stroke="none" stroke-width="1" fill="none" fill-rule="evenodd"> <g id="Nav/Header/Web" transform="translate(-1336.000000, -7.000000)"> <g id="face" transform="translate(1336.000000, 7.000000)"> <rect id="Rectangle-13" fill="#3B5998" x="0" y="0" width="24" height="24" rx="4"></rect> <path d="M12.7211117,9.93198034 L12.7211117,8.89801514 C12.7211117,8.74279666 12.7282529,8.62256993 12.7427648,8.53764099 C12.7572257,8.45258453 12.7901261,8.3689308 12.8411854,8.28634825 C12.8921683,8.2038167 12.9747254,8.14684035 13.0887291,8.11526617 C13.2028858,8.08364098 13.3545847,8.06787939 13.5439788,8.06787939 L14.577893,8.06787939 L14.577893,6 L12.9249922,6 C11.9685852,6 11.281681,6.22691074 10.8641775,6.68073223 C10.4467249,7.13465573 10.2380242,7.80327346 10.2380242,8.68684048 L10.2380242,9.93195483 L9,9.93195483 L9,11.9999872 L10.2379477,11.9999872 L10.2379477,18 L12.7210862,18 L12.7210862,12.0000128 L14.373885,12.0000128 L14.5923538,9.93198034 L12.7211117,9.93198034 Z" id="Shape" fill="#FFFFFF" fill-rule="nonzero"></path> </g> </g> </g></svg>
