<?xml version="1.0" encoding="UTF-8"?>
<svg width="24px" height="24px" viewBox="0 0 24 24" version="1.1" xmlns="http://www.w3.org/2000/svg" xmlns:xlink="http://www.w3.org/1999/xlink">
    <title>gift</title>
    <g id="Selected" stroke="none" stroke-width="1" fill="none" fill-rule="evenodd">
        <g id="Account-menu" transform="translate(-1392, -316)">
            <g id="gift" transform="translate(1392, 316)">
                <path d="M19.5,7.5 L17.428725,7.5 C18.4433158,6.00044219 18.0895163,3.96690301 16.6280817,2.8981294 C15.1666471,1.82935579 13.1215254,2.1085204 12,3.529875 C10.8762041,2.11580867 8.83654374,1.84101038 7.37858339,2.90724321 C5.92062305,3.97347603 5.56431782,6.0004874 6.571275,7.5 L4.5,7.5 C3.67200116,7.50103306 3.00103306,8.17200116 3,9 L3,12 C3.00103306,12.8279988 3.67200116,13.4989669 4.5,13.5 L4.5,21 C4.50103306,21.8279988 5.17200116,22.4989669 6,22.5 L18,22.5 C18.8279988,22.4989669 19.4989669,21.8279988 19.5,21 L19.5,13.5 C20.3279988,13.4989669 20.9989669,12.8279988 21,12 L21,9 C20.9989669,8.17200116 20.3279988,7.50103306 19.5,7.5 Z M12.75,5.625 C12.75,4.58946609 13.5894661,3.75 14.625,3.75 C15.6605339,3.75 16.5,4.58946609 16.5,5.625 C16.5,6.66053391 15.6605339,7.5 14.625,7.5 L12.75,7.5 L12.75,5.625 Z M9.375,3.75 C10.4100199,3.75123979 11.2487602,4.58998007 11.25,5.625 L11.25,7.5 L9.375,7.5 C8.33946609,7.5 7.5,6.66053391 7.5,5.625 C7.5,4.58946609 8.33946609,3.75 9.375,3.75 Z M4.5,9 L11.25,9 L11.25,12 L4.5,12 L4.5,9 Z M6,13.5 L11.25,13.5 L11.25,21 L6,21 L6,13.5 Z M18.0009,21 L12.75,21 L12.75,13.5 L18,13.5 L18.0009,21 Z M12.75,12 L12.75,9 L19.5,9 L19.5009,12 L12.75,12 Z" id="Shape" fill="#49463D" fill-rule="nonzero"></path>
                <rect id="_Transparent_Rectangle_" x="0" y="0" width="24" height="24"></rect>
            </g>
        </g>
    </g>
</svg>