<?xml version="1.0" encoding="UTF-8"?><svg width="24px" height="24px" viewBox="0 0 24 24" version="1.1" xmlns="http://www.w3.org/2000/svg" xmlns:xlink="http://www.w3.org/1999/xlink"> <title>insta</title> <desc>Created with Sketch.</desc> <defs> <linearGradient x1="66.8139539%" y1="-10.5072748%" x2="98.3430837%" y2="111.45127%" id="linearGradient-1"> <stop stop-color="#4E60D3" offset="0%"></stop> <stop stop-color="#913BAF" offset="14.2763214%"></stop> <stop stop-color="#D52D88" offset="76.145798%"></stop> <stop stop-color="#F26D4F" offset="100%"></stop> </linearGradient> <radialGradient cx="30.2743283%" cy="100%" fx="30.2743283%" fy="100%" r="125.287816%" gradientTransform="translate(0.302743,1.000000),scale(0.687500,1.000000),rotate(23.377545),scale(1.000000,0.719668),translate(-0.302743,-1.000000)" id="radialGradient-2"> <stop stop-color="#FED276" offset="0%"></stop> <stop stop-color="#FDBD61" stop-opacity="0.975005661" offset="17.0240041%"></stop> <stop stop-color="#F6804D" offset="45.4081253%"></stop> <stop stop-color="#E83D5C" stop-opacity="0" offset="100%"></stop> </radialGradient> <polygon id="path-3" points="0 0.0036293703 11.5163634 0.0036293703 11.5163634 11.4971881 0 11.4971881"></polygon> </defs> <g id="Symbol" stroke="none" stroke-width="1" fill="none" fill-rule="evenodd"> <g id="Nav/Header/Web" transform="translate(-1396.000000, -7.000000)"> <g id="insta" transform="translate(1396.000000, 7.000000)"> <rect id="Rectangle-13" fill="url(#linearGradient-1)" x="0" y="0" width="24" height="24" rx="4"></rect> <path d="M24,19.9975069 C24,22.2080228 22.2157067,24 20.009947,24 L3.99005301,24 C1.78640758,24 0,22.2069928 0,19.9950771 L0,8.36958597 C1.90843574,7.80692087 3.96855934,7.5 6.1171875,7.5 C15.1230976,7.5 22.756513,12.8963626 24,19.9121259 L24,19.9975069 Z" id="Yellow-Flare" fill="url(#radialGradient-2)"></path> <g id="bg" transform="translate(0.000000, 5.000000)"></g> <g id="Group-8" transform="translate(6.000000, 6.000000)"> <g id="Group-3" transform="translate(0.000000, 0.019185)"> <mask id="mask-4" fill="white"> <use xlink:href="#path-3"></use> </mask> <g id="Clip-2"></g> <path d="M5.758192,0.0036293703 C4.194352,0.0036293703 3.99826057,0.0102448158 3.38408914,0.0382121822 C2.77117486,0.0661111129 2.35263771,0.163266915 1.98632914,0.305339311 C1.60770057,0.45217939 1.28658057,0.648680935 0.966443429,0.968161331 C0.646329143,1.28766454 0.449437714,1.60814866 0.302306286,1.98602747 C0.159952,2.35158787 0.0626034286,2.76931903 0.0346491429,3.38101963 C0.00662628571,3.99397488 -2.28571429e-06,4.18965519 -2.28571429e-06,5.75039848 C-2.28571429e-06,7.31114177 0.00662628571,7.5068449 0.0346491429,8.11980014 C0.0626034286,8.73147792 0.159952,9.1492319 0.302306286,9.51476949 C0.449437714,9.8926483 0.646329143,10.2131552 0.966443429,10.5326356 C1.28658057,10.8521388 1.60770057,11.0486176 1.98632914,11.1955033 C2.35263771,11.3375529 2.77117486,11.4347087 3.38408914,11.4626304 C3.99826057,11.490575 4.194352,11.4971904 5.758192,11.4971904 C7.32200914,11.4971904 7.51810057,11.490575 8.132272,11.4626304 C8.74518629,11.4347087 9.16374629,11.3375529 9.530032,11.1955033 C9.90866057,11.0486176 10.2298034,10.8521388 10.5499177,10.5326356 C10.870032,10.2131552 11.0669234,9.89267111 11.2140549,9.51476949 C11.3564091,9.1492319 11.4537577,8.73147792 11.481712,8.11980014 C11.5097349,7.5068449 11.5163634,7.31114177 11.5163634,5.75039848 C11.5163634,4.189678 11.5097349,3.99397488 11.481712,3.38101963 C11.4537577,2.76931903 11.3564091,2.35158787 11.2140549,1.98602747 C11.0669234,1.60814866 10.870032,1.28766454 10.5499177,0.968161331 C10.2298034,0.648680935 9.90866057,0.45217939 9.530032,0.305339311 C9.16374629,0.163266915 8.74518629,0.0661111129 8.132272,0.0382121822 C7.51810057,0.0102448158 7.32200914,0.0036293703 5.758192,0.0036293703 M5.758192,1.03908347 C7.29570057,1.03908347 7.47778057,1.04492331 8.08498057,1.07257131 C8.64637486,1.09814343 8.95128914,1.19176339 9.154192,1.27046438 C9.42296914,1.37471468 9.61478629,1.49924474 9.816272,1.70033147 C10.0177577,1.90144101 10.1425577,2.09287832 10.2470149,2.36112323 C10.325872,2.5636243 10.4196549,2.86791198 10.4453006,3.42821741 C10.4729806,4.03419222 10.4788549,4.21595729 10.4788549,5.75039848 C10.4788549,7.28486248 10.4729806,7.46662755 10.4453006,8.07257955 C10.4196549,8.63290779 10.325872,8.93719547 10.2470149,9.13969654 C10.1425577,9.40791864 10.0177577,9.59937876 9.81629486,9.80046549 C9.61478629,10.001575 9.42296914,10.1261051 9.154192,10.2303554 C8.95128914,10.3090336 8.64637486,10.4026763 8.08498057,10.4282256 C7.477872,10.4558736 7.295792,10.4617363 5.758192,10.4617363 C4.22056914,10.4617363 4.03848914,10.4558736 3.43138057,10.4282256 C2.86998629,10.4026763 2.565072,10.3090336 2.36216914,10.2303554 C2.093392,10.1261051 1.90157486,10.001575 1.70008914,9.80046549 C1.49860343,9.59937876 1.37380343,9.40791864 1.26934629,9.13969654 C1.19048914,8.93719547 1.09670629,8.63290779 1.07106057,8.07260236 C1.04338057,7.46662755 1.03750629,7.28486248 1.03750629,5.75039848 C1.03750629,4.21595729 1.04338057,4.03419222 1.07106057,3.42821741 C1.09670629,2.86791198 1.19048914,2.5636243 1.26934629,2.36112323 C1.37380343,2.09287832 1.49860343,1.90144101 1.70008914,1.70035428 C1.90157486,1.49924474 2.093392,1.37471468 2.36216914,1.27046438 C2.565072,1.19176339 2.86998629,1.09814343 3.43138057,1.07257131 C4.03858057,1.04492331 4.22066057,1.03908347 5.758192,1.03908347" id="Fill-1" fill="#FFFFFF" mask="url(#mask-4)"></path> </g> <path d="M5.758192,7.68518818 C4.69812343,7.68518818 3.83878629,6.82752989 3.83878629,5.76958327 C3.83878629,4.71163666 4.69812343,3.85400117 5.758192,3.85400117 C6.81823771,3.85400117 7.67757486,4.71163666 7.67757486,5.76958327 C7.67757486,6.82752989 6.81823771,7.68518818 5.758192,7.68518818 M5.758192,2.81854707 C4.12514057,2.81854707 2.80127771,4.13976561 2.80127771,5.76958327 C2.80127771,7.39942375 4.12514057,8.72064228 5.758192,8.72064228 C7.39122057,8.72064228 8.71508343,7.39942375 8.71508343,5.76958327 C8.71508343,4.13976561 7.39122057,2.81854707 5.758192,2.81854707" id="Fill-4" fill="#FFFFFF"></path> <path d="M9.52290286,2.70195099 C9.52290286,3.08281815 9.21353143,3.39155415 8.83193143,3.39155415 C8.45028571,3.39155415 8.14093714,3.08281815 8.14093714,2.70195099 C8.14093714,2.32108382 8.45028571,2.01234782 8.83193143,2.01234782 C9.21353143,2.01234782 9.52290286,2.32108382 9.52290286,2.70195099" id="Fill-6" fill="#FFFFFF"></path> </g> </g> </g> </g></svg>
