<?xml version="1.0" encoding="UTF-8"?><svg width="28px" height="20px" viewBox="0 0 28 20" version="1.1" xmlns="http://www.w3.org/2000/svg" xmlns:xlink="http://www.w3.org/1999/xlink"> <title>jcb</title> <desc>Created with Sketch.</desc> <g id="Symbol" stroke="none" stroke-width="1" fill="none" fill-rule="evenodd"> <g id="Nav/Footer/Web" transform="translate(-1245.000000, -260.000000)"> <g id="Footer"> <g id="Payments" transform="translate(1085.000000, 260.000000)"> <g id="jcb" transform="translate(160.000000, 0.000000)"> <path d="M26.1,20 L1.7,20 C0.8,20 0,19.2 0,18.3 L0,1.7 C0,0.8 0.8,0 1.7,0 L26.1,0 C27,0 27.8,0.8 27.8,1.7 L27.8,18.3 C27.8,19.2 27,20 26.1,20 Z" id="Shape" fill="#FFFFFF" fill-rule="nonzero"></path> <g id="Group" transform="translate(7.000000, 6.000000)"> <path d="M1.9,8 L3.6,8 C4.2,8 4.9,7.4 4.9,6.5 L4.9,0 L3.3,0 C2.5,0 1.9,0.5 1.9,1.5 L1.9,8 Z" id="Shape" fill="#0F6FB4" fill-rule="nonzero"></path> <path d="M5.9,8 L7.6,8 C8.2,8 8.9,7.4 8.9,6.5 L8.9,0 L7.3,0 C6.5,0 5.9,0.6 5.9,1.5 L5.9,8 Z" id="Shape" fill="#E03142" fill-rule="nonzero"></path> <path d="M9.9,8 L11.6,8 C12.2,8 12.9,7.4 12.9,6.5 L12.9,0 L11.3,0 C10.5,0 9.9,0.6 9.9,1.5 L9.9,8 L9.9,8 Z" id="Shape" fill="#15946F" fill-rule="nonzero"></path> <path d="M1.4,4.7 L0.9,4.7 C1,5.4 1.7,6 2.5,6 C3.2,6 4.2,5.5 4.2,4.6 L4.2,3 L3,3 L3,4.6 C3,5.1 2.7,5.4 2.2,5.4 C1.8,5.4 1.5,5.1 1.4,4.7 Z" id="Shape" fill="#FFFFFF" fill-rule="nonzero"></path> <path d="M10.4,5.4 C10.6,5.4 10.8,5.2 10.8,4.9 C10.8,4.7 10.6,4.4 10.4,4.4 L9.6,4.4 L9.6,5.3 L10.4,5.4 L10.4,5.4 Z M9.6,4.2 L10.4,4.2 C10.6,4.2 10.8,4 10.8,3.7 C10.8,3.5 10.6,3.2 10.4,3.2 L9.6,3.2 L9.6,4.2 Z M11.8,5 C11.8,5.4 11.5,5.7 11.2,5.7 L8.6,5.7 L8.6,3 L11.2,3 C11.5,3 11.8,3.3 11.8,3.7 C11.8,4.1 11.5,4.4 11.2,4.4 C11.6,4.4 11.8,4.7 11.8,5 Z" id="Shape" fill="#FFFFFF" fill-rule="nonzero"></path> <path d="M8,5.2 L8,5.7 L6,5.7 C5.4,5.7 4.9,5.1 4.9,4.3 C4.9,3.6 5.4,2.9 6,2.9 L8,2.9 L8,3.4 C7.5,3.3 7.1,3.2 6.8,3.2 C6.3,3.2 5.9,3.7 5.9,4.3 C5.9,4.9 6.3,5.4 6.8,5.4 C7,5.4 7.5,5.4 8,5.2 Z" id="Shape" fill="#FFFFFF" fill-rule="nonzero"></path> <rect id="Rectangle-path" x="0.9" y="0" width="12" height="8"></rect> </g> </g> </g> </g> </g> </g></svg>
