<?xml version="1.0" encoding="UTF-8"?><svg width="94px" height="40px" viewBox="0 0 94 40" version="1.1" xmlns="http://www.w3.org/2000/svg" xmlns:xlink="http://www.w3.org/1999/xlink"> <title>logo</title> <desc>Created with Sketch.</desc> <g id="Symbol" stroke="none" stroke-width="1" fill="none" fill-rule="evenodd"> <g id="Nav/Header/Web" transform="translate(-20.000000, -60.000000)" fill="#2A3658"> <g id="Main-Menu" transform="translate(0.000000, 40.000000)"> <path d="M103.034052,41.0109289 C103.080844,40.3054109 103.154402,39.6339085 103.254725,38.9964158 C103.442745,37.8016667 103.752973,36.5352516 104.185419,35.1971326 C104.373438,34.623653 104.636662,34.2126655 104.975098,33.9641577 C105.313533,33.7156499 105.849381,33.5913978 106.582658,33.5913978 C106.996302,33.5913978 107.283028,33.6583028 107.442844,33.7921147 C107.602661,33.9259266 107.682568,34.1266414 107.682568,34.3942652 C107.682568,34.5471931 107.579159,35.063317 107.372337,35.9426523 C107.184318,36.6499438 107.033904,37.2903197 106.921092,37.8637993 C106.770676,38.6475547 106.639064,39.3978459 106.526253,40.1146953 C106.413441,40.8315448 106.357036,41.4193525 106.357036,41.8781362 C106.357036,42.6045437 106.554453,42.9677419 106.949295,42.9677419 C107.231325,42.9677419 107.583856,42.6810065 108.006901,42.1075269 C108.429945,41.5340473 108.881186,40.664283 109.360636,39.4982079 C109.840086,38.3321328 110.305428,36.8984553 110.756676,35.1971326 C110.907091,34.623653 111.137412,34.2126655 111.447645,33.9641577 C111.757877,33.7156499 112.223219,33.5913978 112.843684,33.5913978 C113.27613,33.5913978 113.576957,33.6487449 113.746175,33.7634409 C113.915392,33.8781368 114,34.0692938 114,34.3369176 C114,34.7957012 113.755578,36.4300935 113.266727,39.2401434 C112.834281,41.9354973 112.580458,43.5316582 112.505251,44.0286738 C111.809577,48.9414822 110.850691,52.8315269 109.628563,55.6989247 C108.406435,58.5663226 106.780088,60 104.749475,60 C103.790574,60 103.010304,59.6989277 102.408641,59.0967742 C101.806978,58.4946206 101.506151,57.7060981 101.506151,56.7311828 C101.506151,55.8327315 101.708269,54.9151779 102.112511,53.9784946 C102.516754,53.0418113 103.268821,51.9665533 104.368737,50.7526882 C105.468652,49.5388231 107.024492,48.148156 109.036304,46.5806452 L109.120912,45.921147 C109.252526,45.2138555 109.402939,44.2007234 109.572157,42.8817204 C109.196118,44.2580714 108.66967,45.3046559 107.992799,46.0215054 C107.315928,46.7383548 106.601464,47.0967742 105.849385,47.0967742 C105.003296,47.0967742 104.312334,46.7001234 103.776478,45.90681 C103.432722,45.397893 103.199228,44.8083469 103.075996,44.1381638 C101.875894,44.9639286 100.96718,45.5964835 100.349835,46.0358423 L98.5448545,47.2688172 C97.8303795,51.2258262 96.8949953,54.3369062 95.7386739,56.6021505 C94.5823525,58.8673948 93.1111201,60 91.3249325,60 C90.3660318,60 89.5857616,59.6989277 88.9840984,59.0967742 C88.3824353,58.4946206 88.0816082,57.7060981 88.0816082,56.7311828 C88.0816082,55.3739478 88.6080556,53.9163758 89.6609661,52.3584229 C90.7138767,50.8004701 92.6880543,48.8841213 95.5835584,46.609319 L95.7527753,45.4910394 C95.4331417,46.007171 95.0148041,46.4038218 94.4977498,46.6810036 C93.9806955,46.9581854 93.4683494,47.0967742 92.9606961,47.0967742 C91.7949737,47.0967742 90.8642899,46.666671 90.1686169,45.8064516 C89.9808628,45.5742884 89.8184454,45.3226328 89.6813646,45.0514841 C88.2957894,46.4150161 86.9822671,47.0967742 85.7407741,47.0967742 C84.5186458,47.0967742 83.6302658,46.6571131 83.0756076,45.7777778 C82.8995648,45.4986859 82.7514595,45.1907107 82.6312915,44.8538511 C82.1763103,45.3028631 81.6992545,45.7111958 81.20012,46.078853 C80.2788233,46.7574705 79.3669412,47.0967742 78.4644464,47.0967742 C77.0354964,47.0967742 75.9449982,46.2461256 75.1929193,44.5448029 C74.4032364,45.5579501 73.7122742,46.2365574 73.120012,46.5806452 C72.5277498,46.9247329 71.8367876,47.0967742 71.0471047,47.0967742 C69.9001843,47.0967742 68.9553992,46.661892 68.2127213,45.7921147 C67.4700433,44.9223373 67.0987099,43.7897322 67.0987099,42.3942652 C67.0987099,42.1106434 67.1097038,41.8308031 67.1316916,41.5547438 C66.4757214,41.6825008 65.7878616,41.7616241 65.0681068,41.7921147 C64.7108693,43.3978575 64.0058058,44.6833882 62.9528953,45.6487455 C61.8999847,46.6141028 60.7060773,47.0967742 59.3711371,47.0967742 C58.2430186,47.0967742 57.2794319,46.8195966 56.480348,46.265233 C55.6812641,45.7108694 55.0749096,44.974915 54.6612661,44.0573477 C54.4332453,43.5515389 54.2680736,43.022499 54.16575,42.4702231 C53.5279791,42.7827878 52.8564728,42.9390681 52.1512151,42.9390681 C51.1547105,42.9390681 50.3979424,42.6810062 49.8808881,42.1648746 C49.3638338,41.6487429 49.1053105,40.9510199 49.1053105,40.0716846 C49.1053105,39.7849448 49.133513,39.4982093 49.189919,39.2114695 C49.2275229,38.8291498 49.2463246,38.5710879 49.2463246,38.437276 C49.2463246,38.1314202 49.1429153,37.9784946 48.9360936,37.9784946 C48.654064,37.9784946 48.2827306,38.2986826 47.8220822,38.9390681 C47.3614338,39.5794536 46.9054928,40.4253233 46.4542454,41.4767025 C46.002998,42.5280817 45.636365,43.6367923 45.3543354,44.8028674 C45.1475137,45.7013187 44.9077921,46.3082422 44.6351635,46.6236559 C44.3625349,46.9390697 43.9347964,47.0967742 43.3519352,47.0967742 C42.6374602,47.0967742 42.1345149,46.7144602 41.8430843,45.9498208 C41.5516537,45.1851814 41.4059406,43.9617766 41.4059406,42.2795699 C41.4059406,39.7944918 41.7537719,37.4337029 42.4494449,35.1971326 C42.6186627,34.642769 42.8959877,34.2365604 43.2814281,33.9784946 C43.6668686,33.7204288 44.2074172,33.5913978 44.9030903,33.5913978 C45.2791298,33.5913978 45.5423535,33.6391871 45.6927693,33.734767 C45.8431851,33.830347 45.9183918,34.0119461 45.9183918,34.2795699 C45.9183918,34.5854257 45.7773791,35.2735908 45.4953495,36.344086 C45.3073298,37.1087254 45.1569162,37.7777749 45.0441044,38.3512545 C44.9312925,38.9247341 44.8372841,39.6320149 44.7620762,40.4731183 C45.3825413,38.8291435 46.0782039,37.4910446 46.8490849,36.4587814 C47.6199658,35.4265181 48.3767339,34.6905637 49.1194119,34.2508961 C49.8620899,33.8112284 50.5436512,33.5913978 51.1641164,33.5913978 C52.3862447,33.5913978 52.9972997,34.2126581 52.9972997,35.4551971 C52.9972997,35.7037049 52.9126921,36.3058495 52.7434743,37.2616487 C52.5930585,38.0262882 52.5178518,38.5041806 52.5178518,38.6953405 C52.5178518,39.3644 52.7528729,39.6989247 53.2229223,39.6989247 C53.500654,39.6989247 53.8202451,39.581883 54.1816984,39.3477975 C54.3140769,38.5745596 54.5397389,37.8552844 54.8586859,37.1899642 C55.4039431,36.052563 56.1560108,35.163683 57.1149115,34.5232975 C58.0738122,33.882912 59.1361078,33.562724 60.3018302,33.562724 C61.7307802,33.562724 62.8823838,34.0645111 63.7566756,35.0681004 C64.6309674,36.0716896 65.1433136,37.3094311 65.2937293,38.781362 C66.0575467,38.7317935 66.9477741,38.5822567 67.964432,38.3327481 C67.9946964,38.2669595 68.0257543,38.2014437 68.0576058,38.1362007 C68.6968729,36.8267557 69.575852,35.7562766 70.6945695,34.9247312 C71.8132869,34.0931858 73.0682999,33.6009566 74.459646,33.4480287 C74.8168835,29.7395275 75.4984448,26.5711004 76.5043504,23.9426523 C77.510256,21.3142043 78.8310749,20 80.4668467,20 C81.2753315,20 81.947492,20.3727561 82.4833483,21.1182796 C83.0192046,21.863803 83.2871287,22.9916292 83.2871287,24.5017921 C83.2871287,26.6427825 82.7700821,29.1469391 81.7359736,32.0143369 C80.701865,34.8817348 79.3199406,37.8255524 77.590159,40.8458781 C77.6653669,41.9546053 77.8298817,42.7479068 78.0837084,43.2258065 C78.337535,43.7037061 78.6618642,43.9426523 79.0567056,43.9426523 C79.564359,43.9426523 80.0814055,43.7132639 80.6078608,43.2544803 C81.040764,42.8772233 81.5944374,42.2931623 82.2688929,41.5022846 C82.3123993,40.7840942 82.4120869,39.9392508 82.5679568,38.9677419 C82.7841795,37.6200649 83.0615045,36.3632077 83.39994,35.1971326 C83.5691578,34.5854211 83.7947781,34.1648757 84.0768077,33.9354839 C84.3588373,33.706092 84.8100779,33.5913978 85.430543,33.5913978 C86.3894437,33.5913978 86.8688869,33.9163647 86.8688869,34.5663082 C86.8688869,35.0442079 86.6902708,36.1529184 86.3330333,37.8924731 C85.8817859,39.9952315 85.6561656,41.4193511 85.6561656,42.1648746 C85.6561656,42.7383541 85.7313724,43.1780152 85.8817882,43.483871 C86.032204,43.7897267 86.2860268,43.9426523 86.6432643,43.9426523 C86.9816999,43.9426523 87.4047379,43.7037061 87.9123912,43.2258065 C88.2472615,42.910563 88.6557591,42.4747144 89.1378898,41.9182541 C89.2063507,40.5741928 89.549924,39.2944026 90.1686169,38.078853 C90.8642899,36.7120601 91.7902733,35.6129074 92.9465947,34.781362 C94.1029161,33.9498166 95.3297265,33.5340502 96.6270627,33.5340502 C97.0407061,33.5340502 97.3180311,33.6152919 97.4590459,33.7777778 C97.6000607,33.9402637 97.7175713,34.2317781 97.8115812,34.6523297 C98.1688187,34.5758658 98.5824559,34.5376344 99.0525052,34.5376344 C99.5225546,34.5376344 99.8562846,34.6093183 100.053705,34.7526882 C100.251126,34.8960581 100.349835,35.1780146 100.349835,35.5985663 C100.349835,35.8279581 100.340434,36.0095573 100.321632,36.1433692 C100.246424,36.7359647 100.011403,38.2365471 99.6165617,40.6451613 C99.5413538,41.1039449 99.4614466,41.605732 99.3768377,42.1505376 C99.2922288,42.6953432 99.2029208,43.2735931 99.1089109,43.8853047 C100.466928,42.8094363 101.775297,41.8513194 103.034052,41.0109289 Z M41.9135913,29.8637993 C41.9135913,31.4886581 41.4999541,32.9796826 40.6726672,34.3369176 C39.8453804,35.6941525 38.6420721,36.8028631 37.0627062,37.6630824 C35.4833404,38.5233018 33.6031712,39.0298678 31.4221422,39.1827957 L30.2094209,46.09319 C29.7393716,48.750312 28.4608565,50.078853 26.3738374,50.078853 C25.2269169,50.078853 24.1693218,49.7347705 23.2010201,49.046595 C22.2327184,48.3584195 21.4571486,47.3070561 20.8742874,45.8924731 C20.2914262,44.4778902 20,42.7383616 20,40.6738351 C20,36.79329 20.6157554,33.5006109 21.8472847,30.7956989 C23.078814,28.090787 24.7333629,26.0645229 26.8109811,24.7168459 C28.8885992,23.3691689 31.1777052,22.6953405 33.6783678,22.6953405 C35.4457534,22.6953405 36.9451883,23.0107495 38.1767176,23.6415771 C39.4082469,24.2724046 40.3389307,25.1278321 40.9687968,26.2078853 C41.598663,27.2879385 41.9135913,28.5065643 41.9135913,29.8637993 Z M31.929793,36.2293907 C35.7841977,35.7323751 37.7113711,33.6965531 37.7113711,30.1218638 C37.7113711,28.8602087 37.3024343,27.8327399 36.4845484,27.0394265 C35.6666625,26.2461131 34.4022488,25.8494624 32.6912691,25.8494624 C30.7546658,25.8494624 29.0672139,26.4707226 27.6288629,27.7132616 C26.1905118,28.9558007 25.081212,30.6809925 24.3009301,32.8888889 C23.5206482,35.0967852 23.130513,37.6152786 23.130513,40.4444444 C23.130513,41.6296356 23.2480236,42.680999 23.4830483,43.5985663 C23.718073,44.5161336 24.0189,45.2281934 24.3855385,45.734767 C24.752177,46.2413406 25.1047088,46.4946237 25.4431443,46.4946237 C25.9131937,46.4946237 26.2704258,45.835132 26.5148515,44.516129 L27.4455445,39.0967742 C26.7122675,38.9820783 26.3926388,38.934289 26.4866487,38.953405 C25.9225894,38.8578251 25.5559564,38.6810049 25.3867387,38.4229391 C25.2175209,38.1648733 25.1329133,37.8351275 25.1329133,37.4336918 C25.1329133,37.0131401 25.2504239,36.6786153 25.4854485,36.4301075 C25.7204732,36.1815997 26.0448024,36.0573477 26.4584458,36.0573477 C26.6464656,36.0573477 26.7874783,36.0669055 26.8814881,36.0860215 C27.3327355,36.1624854 27.6805668,36.2102747 27.9249925,36.2293907 C28.1694181,34.7383438 28.5172495,32.7407533 28.9684968,30.2365591 C29.0813087,29.5866156 29.3398319,29.1230599 29.7440744,28.8458781 C30.1483168,28.5686963 30.6230596,28.4301075 31.1683168,28.4301075 C31.788782,28.4301075 32.2353221,28.5495806 32.5079508,28.7885305 C32.7805794,29.0274803 32.9168917,29.4050153 32.9168917,29.921147 C32.9168917,30.2270027 32.89809,30.4755068 32.860486,30.6666667 L31.929793,36.2293907 Z M59.5967597,44.0573477 C60.1984228,44.0573477 60.7201698,43.8088436 61.1620162,43.311828 C61.6038626,42.8148123 61.8999892,42.0979736 62.050405,41.1612903 C61.4675438,40.7598546 61.0210036,40.2341729 60.7107711,39.5842294 C60.4005385,38.9342859 60.2454245,38.2461207 60.2454245,37.5197133 C60.2454245,37.2138575 60.2736271,36.9080063 60.330033,36.6021505 L60.1890189,36.6021505 C59.4369399,36.6021505 58.8117837,36.9701277 58.3135313,37.7060932 C57.815279,38.4420586 57.5661566,39.4790853 57.5661566,40.8172043 C57.5661566,41.8685835 57.7682748,42.6714429 58.1725172,43.2258065 C58.5767597,43.78017 59.0515024,44.0573477 59.5967597,44.0573477 Z M80.1566156,22.8100358 C79.7993781,22.8100358 79.442146,23.4551907 79.0849085,24.7455197 C78.727671,26.0358487 78.4221435,27.7228092 78.1683168,29.8064516 C77.9144902,31.8900941 77.7311737,34.0692837 77.6183618,36.344086 C79.7241829,31.6797855 80.7770777,27.9331085 80.7770777,25.1039427 C80.7770777,24.3775352 80.7159722,23.8136221 80.5937594,23.4121864 C80.4715465,23.0107507 80.3258334,22.8100358 80.1566156,22.8100358 Z M72.0342034,44.2007168 C72.3914409,44.2007168 72.7486731,44.0525702 73.1059106,43.7562724 C73.4631481,43.4599746 73.9143887,42.9103983 74.459646,42.1075269 C74.2716262,41.0752637 74.1776177,39.9187639 74.1776177,38.6379928 C74.1776177,38.1792092 74.1964194,37.4336969 74.2340234,36.4014337 C73.1999148,36.7264054 72.3397374,37.4289074 71.6534653,38.5089606 C70.9671933,39.5890138 70.6240624,40.7885239 70.6240624,42.1075269 C70.6240624,43.5029938 71.0941047,44.2007168 72.0342034,44.2007168 Z M85.9663966,31.6989247 C85.1767137,31.6989247 84.5844604,31.5125467 84.189619,31.1397849 C83.7947775,30.7670232 83.5973597,30.2461204 83.5973597,29.5770609 C83.5973597,28.9080014 83.855883,28.3488672 84.3729373,27.8996416 C84.8899916,27.4504159 85.5339495,27.2258065 86.3048305,27.2258065 C87.0005035,27.2258065 87.5645543,27.3978477 87.9969997,27.7419355 C88.4294451,28.0860232 88.6456646,28.5734735 88.6456646,29.2043011 C88.6456646,29.9689405 88.4012426,30.5758639 87.9123912,31.0250896 C87.4235399,31.4743153 86.7748815,31.6989247 85.9663966,31.6989247 Z M93.9759976,44.2007168 C94.408443,44.2007168 94.8220802,43.9330971 95.2169217,43.3978495 C95.6117632,42.8626019 95.8937885,42.0979739 96.0630063,41.1039427 L96.9654966,36.2007168 C96.1946156,36.2198328 95.4801513,36.5209051 94.8220822,37.1039427 C94.1640131,37.6869802 93.6375657,38.4563871 93.2427243,39.4121864 C92.8478828,40.3679857 92.6504651,41.3811177 92.6504651,42.4516129 C92.6504651,43.0442085 92.7679756,43.4838695 93.0030003,43.7706093 C93.238025,44.0573491 93.5623542,44.2007168 93.9759976,44.2007168 Z M91.6351635,57.218638 C92.1052129,57.218638 92.6363607,56.645167 93.2286229,55.4982079 C93.8208851,54.3512487 94.3896362,52.5256995 94.9348935,50.0215054 C93.4871415,51.2831604 92.4436476,52.4205445 91.8043805,53.4336918 C91.1651133,54.446839 90.8454846,55.335719 90.8454846,56.1003584 C90.8454846,56.4253302 90.9065901,56.69295 91.0288029,56.9032258 C91.1510157,57.1135016 91.3531339,57.218638 91.6351635,57.218638 Z M105.059706,57.218638 C105.529755,57.218638 106.056203,56.6642827 106.639064,55.5555556 C107.221925,54.4468284 107.804778,52.6021634 108.387639,50.0215054 C106.939887,51.2640444 105.891692,52.3966496 105.243024,53.4193548 C104.594356,54.4420601 104.270027,55.335719 104.270027,56.1003584 C104.270027,56.4253302 104.331133,56.69295 104.453345,56.9032258 C104.575558,57.1135016 104.777676,57.218638 105.059706,57.218638 Z" id="logo"></path> </g> </g> </g></svg>
