<?xml version="1.0" encoding="UTF-8"?>
<svg width="24px" height="24px" viewBox="0 0 24 24" version="1.1" xmlns="http://www.w3.org/2000/svg" xmlns:xlink="http://www.w3.org/1999/xlink">
    <title>logout</title>
    <g id="Selected" stroke="none" stroke-width="1" fill="none" fill-rule="evenodd">
        <g id="Account-menu" transform="translate(-1392, -535)">
            <g id="logout" transform="translate(1392, 535)">
                <path d="M4.5,22.5 L13.5,22.5 C14.3280331,22.4990494 14.9990494,21.8280331 15,21 L15,18.75 L13.5,18.75 L13.5,21 L4.5,21 L4.5,3 L13.5,3 L13.5,5.25 L15,5.25 L15,3 C14.9990494,2.17196695 14.3280331,1.5009506 13.5,1.5 L4.5,1.5 C3.67196695,1.5009506 3.0009506,2.17196695 3,3 L3,21 C3.0009506,21.8280331 3.67196695,22.4990494 4.5,22.5 Z" id="Path" fill="#49463D" fill-rule="nonzero"></path>
                <polygon id="Path" fill="#49463D" fill-rule="nonzero" points="15.4395 15.4395 18.129 12.75 7.5 12.75 7.5 11.25 18.129 11.25 15.4395 8.5605 16.5 7.5 21 12 16.5 16.5"></polygon>
                <rect id="_Transparent_Rectangle_" x="0" y="0" width="24" height="24"></rect>
            </g>
        </g>
    </g>
</svg>