<svg version="1.1" xmlns="http://www.w3.org/2000/svg" width="1203" height="512" fill="#FFFFFF" viewBox="0 0 1203 512"><title></title><g id="icomoon-ignore"></g><path d="M1062.836 268.94c0.599-9.031 1.541-17.626 2.824-25.786 2.407-15.293 6.378-31.503 11.913-48.631 2.407-7.34 5.776-12.601 10.108-15.782s11.191-4.772 20.577-4.772c5.294 0 8.965 0.857 11.011 2.569s3.069 4.282 3.069 7.708c0 1.958-1.323 8.564-3.971 19.82-2.407 9.053-4.332 17.25-5.776 24.59-1.926 10.032-3.61 19.636-5.054 28.811s-2.166 16.7-2.166 22.572c0 9.298 2.527 13.947 7.581 13.947 3.61 0 8.122-3.67 13.537-11.011s11.191-18.474 17.328-33.399c6.137-14.926 12.093-33.277 17.87-55.054 1.926-7.34 4.873-12.601 8.844-15.782s9.928-4.772 17.87-4.772c5.535 0 9.386 0.734 11.552 2.202s3.249 3.915 3.249 7.34c0 5.873-3.129 26.792-9.386 62.761-5.535 34.5-8.784 54.932-9.747 61.293-8.905 62.884-21.178 112.677-36.822 149.379s-36.46 55.054-62.453 55.054c-12.274 0-22.262-3.853-29.963-11.562s-11.552-17.8-11.552-30.279c0-11.5 2.587-23.245 7.762-35.235s14.801-25.753 28.88-41.291c14.079-15.538 33.994-33.338 59.745-53.402l1.083-8.442c1.685-9.053 3.61-22.022 5.776-38.904-4.813 17.618-11.552 31.014-20.216 40.189s-17.809 13.764-27.436 13.764c-10.83 0-19.675-5.077-26.533-15.231-4.4-6.514-7.389-14.060-8.966-22.639-15.361 10.57-26.993 18.666-34.895 24.291l-23.104 15.782c-9.145 50.649-21.118 90.471-35.919 119.466s-33.633 43.493-56.496 43.493c-12.274 0-22.261-3.853-29.962-11.562s-11.552-17.8-11.552-30.279c0-17.373 6.739-36.029 20.216-55.971s38.746-44.471 75.809-73.589l2.166-14.314c-4.091 6.606-9.446 11.683-16.064 15.231s-13.177 5.322-19.674 5.322c-14.921 0-26.834-5.505-35.739-16.516-2.404-2.971-4.482-6.193-6.237-9.663-17.736 17.453-34.548 26.18-50.439 26.18-15.643 0-27.014-5.627-34.114-16.883-2.254-3.572-4.149-7.514-5.687-11.827-5.824 5.748-11.93 10.974-18.319 15.68-11.793 8.687-23.465 13.029-35.016 13.029-18.29 0-32.249-10.889-41.875-32.665-10.108 12.969-18.952 21.654-26.533 26.059s-16.426 6.606-26.533 6.606c-14.681 0-26.774-5.567-36.28-16.7s-14.26-25.63-14.26-43.493c0-3.63 0.14-7.212 0.422-10.746-8.396 1.635-17.201 2.648-26.414 3.038-4.572 20.553-13.597 37.009-27.074 49.365s-28.76 18.535-45.846 18.535c-14.44 0-26.774-3.548-37.002-10.644s-17.99-16.516-23.284-28.261c-2.918-6.474-5.033-13.246-6.342-20.315-8.163 4.001-16.759 6.001-25.786 6.001-12.755 0-22.442-3.303-29.060-9.909s-9.928-15.538-9.928-26.793c0-3.671 0.361-7.34 1.083-11.011 0.481-4.893 0.722-8.197 0.722-9.91 0-3.915-1.324-5.873-3.971-5.873-3.61 0-8.363 4.099-14.26 12.296s-11.733 19.024-17.509 32.481c-5.776 13.457-10.469 27.649-14.079 42.575-2.647 11.5-5.716 19.269-9.205 23.306s-8.964 6.056-16.425 6.056c-9.146 0-15.583-4.894-19.313-14.681s-5.596-25.447-5.596-46.979c0-31.809 4.452-62.027 13.357-90.655 2.166-7.096 5.716-12.296 10.649-15.599s11.853-4.955 20.757-4.955c4.813 0 8.183 0.612 10.108 1.835s2.888 3.548 2.888 6.974c0 3.915-1.805 12.724-5.415 26.426-2.406 9.787-4.332 18.351-5.776 25.692s-2.647 16.393-3.61 27.16c7.942-21.043 16.846-38.171 26.714-51.383s19.554-22.633 29.060-28.261c9.507-5.627 18.231-8.441 26.172-8.441 15.643 0 23.464 7.952 23.464 23.857 0 3.181-1.083 10.888-3.249 23.123-1.925 9.787-2.888 15.905-2.888 18.351 0 8.564 3.009 12.846 9.025 12.846 3.555 0 7.646-1.498 12.272-4.494 1.695-9.898 4.583-19.104 8.666-27.62 6.979-14.559 16.606-25.936 28.88-34.133s25.872-12.296 40.792-12.296c18.29 0 33.031 6.423 44.222 19.269s17.749 28.689 19.674 47.529c9.777-0.635 21.172-2.548 34.185-5.743 0.388-0.842 0.785-1.68 1.192-2.516 8.183-16.761 19.433-30.463 33.753-41.107s30.384-16.945 48.193-18.902c4.572-47.469 13.297-88.025 26.172-121.669s29.782-50.466 50.72-50.466c10.348 0 18.952 4.771 25.811 14.314s10.288 23.979 10.288 43.309c0 27.404-6.618 59.458-19.855 96.161s-30.925 74.383-53.067 113.043c0.962 14.192 3.068 24.346 6.317 30.463s7.4 9.175 12.455 9.175c6.498 0 13.116-2.936 19.855-8.808 5.541-4.829 12.628-12.305 21.261-22.428 0.557-9.193 1.833-20.007 3.828-32.442 2.768-17.25 6.317-33.338 10.649-48.264 2.166-7.83 5.054-13.213 8.664-16.149s9.386-4.405 17.328-4.405c12.274 0 18.411 4.16 18.411 12.479 0 6.117-2.287 20.309-6.859 42.575-5.776 26.916-8.664 45.144-8.664 54.687 0 7.341 0.962 12.968 2.888 16.883s5.174 5.873 9.747 5.873c4.332 0 9.747-3.058 16.245-9.175 4.287-4.035 9.515-9.614 15.687-16.736 0.876-17.204 5.274-33.585 13.193-49.144 8.904-17.495 20.757-31.564 35.558-42.208s30.504-15.965 47.11-15.965c5.294 0 8.845 1.040 10.649 3.119s3.309 5.811 4.513 11.195c4.572-0.978 9.867-1.468 15.884-1.468s10.288 0.917 12.815 2.752c2.527 1.835 3.791 5.444 3.791 10.827 0 2.936-0.12 5.261-0.361 6.974-0.963 7.585-3.971 26.792-9.025 57.623-0.962 5.873-1.986 12.296-3.068 19.269s-2.226 14.375-3.429 22.205c17.382-13.771 34.13-26.035 50.242-36.792zM280.494 126.257c0 20.798-5.295 39.883-15.884 57.256s-25.992 31.564-46.208 42.575c-20.216 11.011-44.282 17.495-72.199 19.452l-15.523 88.453c-6.016 34.011-22.382 51.017-49.096 51.017-14.68 0-28.218-4.404-40.612-13.213s-22.322-22.266-29.782-40.373c-7.46-18.106-11.191-40.373-11.191-66.798 0-49.671 7.881-91.817 23.645-126.44s36.942-60.559 63.536-77.809c26.594-17.251 55.894-25.876 87.903-25.876 22.623 0 41.815 4.037 57.579 12.112s27.676 19.024 35.738 32.848c8.063 13.825 12.094 29.423 12.094 46.796zM152.702 207.736c49.337-6.362 74.004-32.421 74.004-78.177 0-16.149-5.234-29.301-15.703-39.455s-26.654-15.231-48.554-15.231c-24.788 0-46.388 7.952-64.799 23.856s-32.61 37.987-42.597 66.248c-9.987 28.261-14.981 60.498-14.981 96.711 0 15.171 1.504 28.628 4.513 40.373s6.859 20.859 11.552 27.344c4.693 6.484 9.205 9.726 13.538 9.726 6.016 0 10.589-8.442 13.718-25.325l11.913-69.368c-9.386-1.468-13.477-2.080-12.274-1.835-7.22-1.224-11.913-3.487-14.079-6.79s-3.249-7.524-3.249-12.662c0-5.383 1.504-9.665 4.513-12.846s7.159-4.772 12.454-4.772c2.406 0 4.212 0.123 5.415 0.367 5.776 0.978 10.228 1.59 13.357 1.835 3.129-19.085 7.581-44.655 13.357-76.708 1.444-8.32 4.753-14.253 9.927-17.8s11.251-5.322 18.23-5.322c7.942 0 13.657 1.529 17.148 4.588s5.234 7.891 5.234 14.498c0 3.915-0.24 7.096-0.722 9.542l-11.913 71.203zM506.839 307.934c7.701 0 14.379-3.181 20.036-9.543s9.446-15.538 11.371-27.527c-7.461-5.139-13.177-11.867-17.148-20.186s-5.957-17.128-5.957-26.426c0-3.915 0.361-7.83 1.083-11.745h-1.805c-9.627 0-17.628 4.71-24.006 14.131s-9.567 22.695-9.567 39.822c0 13.457 2.587 23.735 7.762 30.83s11.251 10.644 18.231 10.644zM770.005 35.968c-4.572 0-9.145 8.258-13.718 24.774s-8.484 38.11-11.732 64.78c-3.249 26.671-5.596 54.565-7.039 83.681 26.955-59.703 40.432-107.66 40.432-143.874 0-9.298-0.782-16.516-2.346-21.654s-3.429-7.707-5.596-7.707zM666.038 309.769c4.572 0 9.145-1.897 13.718-5.689s10.348-10.827 17.328-21.104c-2.407-13.213-3.61-28.016-3.61-44.41 0-5.873 0.24-15.415 0.722-28.628-13.236 4.16-24.247 13.151-33.031 26.976s-13.177 29.178-13.177 46.062c0 17.862 6.016 26.793 18.050 26.793zM844.37 149.746c-10.108 0-17.689-2.386-22.743-7.157s-7.581-11.439-7.581-20.003c0-8.564 3.309-15.721 9.928-21.471s14.861-8.625 24.728-8.625c8.904 0 16.125 2.202 21.66 6.606s8.303 10.644 8.303 18.719c0 9.787-3.129 17.556-9.386 23.306s-14.56 8.625-24.909 8.625zM946.893 309.769c5.535 0 10.83-3.425 15.884-10.276s8.664-16.639 10.83-29.362l11.552-62.762c-9.867 0.244-19.013 4.099-27.436 11.561s-15.162 17.311-20.216 29.546c-5.054 12.234-7.581 25.203-7.581 38.905 0 7.585 1.504 13.213 4.513 16.883s7.159 5.505 12.455 5.505zM916.93 476.399c6.016 0 12.816-7.341 20.396-22.022s14.861-38.048 21.841-70.102c-18.531 16.149-31.888 30.707-40.071 43.676s-12.274 24.346-12.274 34.133c0 4.159 0.782 7.585 2.346 10.276s4.152 4.038 7.761 4.038zM1088.764 476.399c6.016 0 12.755-7.096 20.216-21.288s14.921-37.803 22.382-70.836c-18.531 15.904-31.948 30.402-40.251 43.493s-12.455 24.529-12.455 34.317c0 4.159 0.782 7.585 2.347 10.276s4.151 4.038 7.762 4.038z"></path></svg>
