<?xml version="1.0" encoding="UTF-8"?><svg width="28px" height="20px" viewBox="0 0 28 20" version="1.1" xmlns="http://www.w3.org/2000/svg" xmlns:xlink="http://www.w3.org/1999/xlink"> <title>mastercard</title> <desc>Created with Sketch.</desc> <g id="Symbol" stroke="none" stroke-width="1" fill="none" fill-rule="evenodd"> <g id="Nav/Footer/Web" transform="translate(-1085.000000, -260.000000)" fill-rule="nonzero"> <g id="Footer"> <g id="Payments" transform="translate(1085.000000, 260.000000)"> <g id="mastercard"> <path d="M26.1,20 L1.7,20 C0.8,20 0,19.2 0,18.3 L0,1.7 C0,0.8 0.8,0 1.7,0 L26.1,0 C27,0 27.8,0.8 27.8,1.7 L27.8,18.3 C27.8,19.3 27.1,20 26.1,20 Z" id="Shape" fill="#FFFFFF"></path> <ellipse id="Oval" fill="#E90D23" cx="11.2" cy="10" rx="4.3" ry="4.5"></ellipse> <path d="M16.6,5.5 C15.6,5.5 14.7,5.8 14,6.4 L14,6.4 C14.1,6.5 14.3,6.6 14.4,6.8 L13.5,6.8 C13.4,6.9 13.2,7.1 13.1,7.3 L14.7,7.3 C14.8,7.5 14.9,7.6 15,7.7 L12.8,7.7 C12.7,7.8 12.6,8 12.6,8.1 L15.3,8.1 C15.4,8.3 15.4,8.4 15.5,8.5 L12.5,8.5 C12.5,8.7 12.4,8.8 12.4,9 L15.7,9 C15.7,9.2 15.8,9.3 15.8,9.4 L12.3,9.4 C12.3,9.5 12.3,9.7 12.3,9.9 L15.8,9.9 C15.8,10.1 15.8,10.2 15.8,10.4 L12.3,10.4 C12.3,10.6 12.3,10.7 12.4,10.9 L15.7,10.9 C15.7,11 15.6,11.2 15.6,11.3 L12.5,11.3 C12.5,11.5 12.6,11.6 12.7,11.7 L15.4,11.7 C15.3,11.9 15.2,12 15.1,12.1 L12.9,12.1 C13,12.3 13.1,12.4 13.2,12.6 L14.8,12.6 C14.7,12.8 14.5,12.9 14.3,13 C14.3,13 14,13 13.5,13 C14.3,13.8 15.4,14.4 16.6,14.4 C19,14.4 20.9,12.4 20.9,9.9 C21,7.6 19,5.5 16.6,5.5 Z" id="Shape" fill="#F59F2D"></path> </g> </g> </g> </g> </g></svg>
