<?xml version="1.0" encoding="UTF-8"?><svg width="28px" height="20px" viewBox="0 0 28 20" version="1.1" xmlns="http://www.w3.org/2000/svg" xmlns:xlink="http://www.w3.org/1999/xlink"> <title>paypal</title> <desc>Created with Sketch.</desc> <g id="Symbol" stroke="none" stroke-width="1" fill="none" fill-rule="evenodd"> <g id="Nav/Footer/Web" transform="translate(-1165.000000, -260.000000)"> <g id="Footer"> <g id="Payments" transform="translate(1085.000000, 260.000000)"> <g id="paypal" transform="translate(80.000000, 0.000000)"> <path d="M26.1,20 L1.7,20 C0.8,20 0,19.2 0,18.3 L0,1.7 C0,0.8 0.8,0 1.7,0 L26.1,0 C27,0 27.8,0.8 27.8,1.7 L27.8,18.3 C27.8,19.2 27,20 26.1,20 Z" id="Shape" fill="#FFFFFF" fill-rule="nonzero"></path> <g id="logo" transform="translate(13.500000, 10.000000) scale(1, -1) translate(-13.500000, -10.000000) translate(2.000000, 7.000000)"> <path d="M15.6440473,4.2501254 C15.5475018,3.6621399 15.0634077,3.6621399 14.595025,3.6621399 L14.3286139,3.6621399 L14.5155571,4.75996628 C14.5267145,4.82628361 14.5884217,4.8750712 14.6608309,4.8750712 L14.7831068,4.8750712 C15.1018893,4.8750712 15.4029111,4.8750712 15.5582037,4.70674345 C15.6511061,4.60600025 15.6791134,4.45646945 15.6440473,4.2501254 M15.4402542,5.78429446 L13.6741989,5.78429446 C13.5532892,5.78429446 13.4505957,5.70277061 13.4316965,5.59210093 L12.7176235,1.39172175 C12.703506,1.30893069 12.7727274,1.23395409 12.8628973,1.23395409 L13.7691505,1.23395409 C13.8536279,1.23395409 13.9255817,1.29097855 13.9387884,1.36827837 L14.141443,2.55924469 C14.1601146,2.66991437 14.2630358,2.75143822 14.3837178,2.75143822 L14.942498,2.75143822 C16.1058266,2.75143822 16.7773193,3.2735288 16.9526497,4.30862827 C17.0316622,4.76102229 16.9558375,5.11668593 16.7274526,5.36569272 C16.4762975,5.63941011 16.0311404,5.78429446 15.4402542,5.78429446" id="Shape" fill="#0079C1"></path> <path d="M3.04765096,4.2501254 C2.95110539,3.6621399 2.46701132,3.6621399 1.99862868,3.6621399 L1.73221755,3.6621399 L1.91916074,4.75996628 C1.93031813,4.82628361 1.99202532,4.8750712 2.0644345,4.8750712 L2.18671038,4.8750712 C2.50549293,4.8750712 2.80651473,4.8750712 2.96180737,4.70674345 C3.05470972,4.60600025 3.08271704,4.45646945 3.04765096,4.2501254 M2.84385783,5.78429446 L1.07780252,5.78429446 C0.956892849,5.78429446 0.854199328,5.70277061 0.835300077,5.59210093 L0.121227169,1.39172175 C0.107109656,1.30893069 0.176103308,1.23395409 0.26650093,1.23395409 L1.10990847,1.23395409 C1.23059044,1.23395409 1.33328396,1.31547795 1.35218321,1.42593643 L1.54504665,2.55924469 C1.5637182,2.66991437 1.66663942,2.75143822 1.78732139,2.75143822 L2.34610165,2.75143822 C3.50943025,2.75143822 4.18092292,3.2735288 4.35625332,4.30862827 C4.43526585,4.76102229 4.35944115,5.11668593 4.13105622,5.36569272 C3.87990111,5.63941011 3.43474405,5.78429446 2.84385783,5.78429446" id="Shape" fill="#00457C"></path> <path d="M6.94392511,2.74218759 C6.86218016,2.29401761 6.47873029,1.9930552 5.98939908,1.9930552 C5.74416422,1.9930552 5.54765755,2.06634219 5.42151074,2.20489049 C5.29650245,2.34217159 5.24936817,2.53795556 5.28898829,2.7557045 C5.36504069,3.20007285 5.75486621,3.51053933 6.23668326,3.51053933 C6.47690868,3.51053933 6.67182144,3.43661874 6.80047297,3.29680322 C6.9300353,3.1559317 6.98104051,2.95909172 6.94392511,2.74218759 M8.12250973,4.26896459 L7.27682517,4.26896459 C7.204416,4.26896459 7.1427088,4.220177 7.13132371,4.15364847 L7.09420831,3.93442112 L7.03523354,4.01383295 C6.85193358,4.26030532 6.44366421,4.34288518 6.03607796,4.34288518 C5.10181739,4.34288518 4.30372251,3.68604793 4.14842987,2.76499737 C4.06759572,2.3054225 4.18235744,1.86633419 4.46334149,1.55988054 C4.72132765,1.27834869 5.08952149,1.16113175 5.5283029,1.16113175 C6.28154052,1.16113175 6.69914566,1.60972414 6.69914566,1.60972414 L6.66134715,1.39176399 C6.64722964,1.30897293 6.71622329,1.23399633 6.80684862,1.23399633 L7.5682835,1.23399633 C7.68919317,1.23399633 7.79188669,1.31530898 7.81078594,1.42597867 L8.2680112,4.11119693 C8.28212871,4.19398799 8.21290736,4.26896459 8.12250973,4.26896459" id="Shape" fill="#00457C"></path> <path d="M19.5403443,2.74218759 C19.4585993,2.29401761 19.0751494,1.9930552 18.5858182,1.9930552 C18.3405834,1.9930552 18.1440767,2.06634219 18.0179299,2.20489049 C17.8926939,2.34217159 17.8457873,2.53795556 17.8854074,2.7557045 C17.9614598,3.20007285 18.3512854,3.51053933 18.8331024,3.51053933 C19.0733278,3.51053933 19.2682406,3.43661874 19.3968921,3.29680322 C19.5264544,3.1559317 19.5774597,2.95909172 19.5403443,2.74218759 M20.7189289,4.26896459 L19.8732443,4.26896459 C19.8008351,4.26896459 19.7391279,4.220177 19.7277429,4.15364847 L19.6906275,3.93442112 L19.631425,4.01383295 C19.4483527,4.26030532 19.0400834,4.34288518 18.6324971,4.34288518 C17.6982365,4.34288518 16.9001417,3.68604793 16.744849,2.76499737 C16.6640149,2.3054225 16.7787766,1.86633419 17.0597606,1.55988054 C17.3177468,1.27834869 17.6859406,1.16113175 18.124722,1.16113175 C18.8779597,1.16113175 19.2955648,1.60972414 19.2955648,1.60972414 L19.2577663,1.39176399 C19.2436488,1.30897293 19.3126424,1.23399633 19.4032678,1.23399633 L20.1647026,1.23399633 C20.2856123,1.23399633 20.3883058,1.31530898 20.4072051,1.42597867 L20.8644303,4.11119693 C20.8785479,4.19398799 20.8093265,4.26896459 20.7189289,4.26896459" id="Shape" fill="#0079C1"></path> <path d="M12.6266111,4.26894347 L11.7766002,4.26894347 C11.6953107,4.26894347 11.6192583,4.23156077 11.5737179,4.16904507 L10.4010535,2.56729147 L9.90420816,4.10652937 C9.87301302,4.20283734 9.77737825,4.26894347 9.66899218,4.26894347 L8.83355421,4.26894347 C8.7326823,4.26894347 8.66163933,4.17685954 8.69420069,4.08836603 L9.63005517,1.54000646 L8.74975994,0.387901251 C8.68076629,0.297506928 8.75044304,0.172475529 8.8699865,0.172475529 L9.71908659,0.172475529 C9.79946533,0.172475529 9.87483463,0.209013421 9.9208304,0.270261911 L12.7475208,4.05457376 C12.8151482,4.14517928 12.7454715,4.26894347 12.6266111,4.26894347" id="Shape" fill="#00457C"></path> <path d="M21.7156708,5.66887274 L20.9908959,1.39161615 C20.9767784,1.30882509 21.0457721,1.23384849 21.1361697,1.23384849 L21.8652709,1.23384849 C21.9859529,1.23384849 22.0888741,1.31537234 22.1075457,1.42604203 L22.8223017,5.6264212 C22.8364192,5.70921226 22.7674255,5.78418886 22.6768002,5.78418886 L21.8611723,5.78418886 C21.7885354,5.78418886 21.7268282,5.73540127 21.7156708,5.66887274" id="Shape" fill="#0079C1"></path> </g> </g> </g> </g> </g> </g></svg>
