<?xml version="1.0" encoding="UTF-8"?><svg width="48px" height="48px" viewBox="0 0 48 48" version="1.1" xmlns="http://www.w3.org/2000/svg" xmlns:xlink="http://www.w3.org/1999/xlink"> <title>097F994C-BBC2-43B6-AAD8-48F5F10F799E</title> <desc>Created with sketchtool.</desc> <defs> <path d="M44.3333344,46.6666667 L17.2993334,46.6666667 L37.3333341,26.6326656 L46.6666678,35.9659994 L46.6666678,44.3333332 C46.6666678,45.6213333 45.6213344,46.6666667 44.3333344,46.6666667 L44.3333344,46.6666667 Z M9.33333333,11.6666666 C9.33333333,10.381 10.381,9.33333333 11.6666667,9.33333333 L44.3333333,9.33333333 C45.6213333,9.33333333 46.6666667,10.381 46.6666667,11.6666666 L46.6666667,29.367333 L38.983,21.6836665 C38.0706667,20.7713332 36.596,20.7713332 35.6836667,21.6836665 L10.864,46.5056661 C9.975,46.1743328 9.33333333,45.3366661 9.33333333,44.3333328 L9.33333333,11.6666666 Z M44.3333333,4.66666667 L11.6666667,4.66666667 C7.80733333,4.66666667 4.66666667,7.80733333 4.66666667,11.6666667 L4.66666667,44.3333333 C4.66666667,48.1926667 7.80733333,51.3333333 11.6666667,51.3333333 L44.3333333,51.3333333 C48.1926667,51.3333333 51.3333333,48.1926667 51.3333333,44.3333333 L51.3333333,11.6666667 C51.3333333,7.80733333 48.1926667,4.66666667 44.3333333,4.66666667 L44.3333333,4.66666667 Z M19.8333333,18.6666667 C20.4773333,18.6666667 21,19.1893333 21,19.8333333 C21,20.4773333 20.4773333,21 19.8333333,21 C19.1893333,21 18.6666667,20.4773333 18.6666667,19.8333333 C18.6666667,19.1893333 19.1893333,18.6666667 19.8333333,18.6666667 M19.8333333,25.6666667 C23.0486667,25.6666667 25.6666667,23.0486667 25.6666667,19.8333333 C25.6666667,16.618 23.0486667,14 19.8333333,14 C16.618,14 14,16.618 14,19.8333333 C14,23.0486667 16.618,25.6666667 19.8333333,25.6666667" id="path-1"></path> </defs> <g id="Pages" stroke="none" stroke-width="1" fill="none" fill-rule="evenodd"> <g id="Product-Page/Desktop" transform="translate(-459.000000, -392.000000)"> <g id="quick-view-popup" transform="translate(256.000000, 160.000000)"> <g id="icn/image" transform="translate(199.000000, 228.000000)"> <mask id="mask-2" fill="white"> <use xlink:href="#path-1"></use> </mask> <use fill="#2A3658" xlink:href="#path-1"></use> </g> </g> </g> </g></svg>
