<?xml version="1.0" encoding="UTF-8"?>
<svg width="24px" height="24px" viewBox="0 0 24 24" version="1.1" xmlns="http://www.w3.org/2000/svg" xmlns:xlink="http://www.w3.org/1999/xlink">
    <title>report</title>
    <g id="Selected" stroke="none" stroke-width="1" fill="none" fill-rule="evenodd">
        <g id="Account-menu" transform="translate(-1392, -170)">
            <g id="report" transform="translate(1392, 170)">
                <rect id="Rectangle" fill="#49463D" fill-rule="nonzero" x="7.5" y="13.5" width="6" height="1.5"></rect>
                <rect id="Rectangle" fill="#49463D" fill-rule="nonzero" x="7.5" y="9.75" width="9" height="1.5"></rect>
                <rect id="Rectangle" fill="#49463D" fill-rule="nonzero" x="7.5" y="17.25" width="3.75" height="1.5"></rect>
                <path d="M18.75,3.75 L16.5,3.75 L16.5,3 C16.5,2.17157288 15.8284271,1.5 15,1.5 L9,1.5 C8.17157288,1.5 7.5,2.17157288 7.5,3 L7.5,3.75 L5.25,3.75 C4.42157288,3.75 3.75,4.42157288 3.75,5.25 L3.75,21 C3.75,21.8284271 4.42157288,22.5 5.25,22.5 L18.75,22.5 C19.5784271,22.5 20.25,21.8284271 20.25,21 L20.25,5.25 C20.25,4.42157288 19.5784271,3.75 18.75,3.75 Z M9,3 L15,3 L15,6 L9,6 L9,3 Z M18.75,21 L5.25,21 L5.25,5.25 L7.5,5.25 L7.5,7.5 L16.5,7.5 L16.5,5.25 L18.75,5.25 L18.75,21 Z" id="Shape" fill="#49463D" fill-rule="nonzero"></path>
                <rect id="_Transparent_Rectangle_" x="0" y="0" width="24" height="24"></rect>
            </g>
        </g>
    </g>
</svg>