<?xml version="1.0" encoding="UTF-8"?><svg width="20px" height="20px" viewBox="0 0 20 20" version="1.1" xmlns="http://www.w3.org/2000/svg" xmlns:xlink="http://www.w3.org/1999/xlink"> <title>64C0E445-611D-486D-BFD2-E40A1D8DA057</title> <desc>Created with sketchtool.</desc> <defs> <path d="M4,10.5 C4,6.916 6.916,4 10.5,4 C14.084,4 17,6.916 17,10.5 C17,12.29 16.272,13.912 15.099,15.089 C15.097,15.091 15.095,15.091 15.093,15.093 C15.091,15.095 15.091,15.097 15.089,15.099 C13.912,16.272 12.29,17 10.5,17 C6.916,17 4,14.084 4,10.5 M21.707,20.293 L17.168,15.754 C18.312,14.307 19,12.483 19,10.5 C19,5.813 15.187,2 10.5,2 C5.813,2 2,5.813 2,10.5 C2,15.187 5.813,19 10.5,19 C12.483,19 14.307,18.312 15.754,17.168 L20.293,21.707 C20.488,21.902 20.744,22 21,22 C21.256,22 21.512,21.902 21.707,21.707 C22.098,21.316 22.098,20.684 21.707,20.293" id="path-1"></path> </defs> <g id="Header/Footer" stroke="none" stroke-width="1" fill="none" fill-rule="evenodd"> <g id="Header/Dropdown-Menu/Desktop" transform="translate(-851.000000, -1003.000000)"> <g id="Header/Dropdown-Menu-3" transform="translate(0.000000, 935.000000)"> <g id="Nav/Header/Web"> <g id="Main-Menu" transform="translate(0.000000, 40.000000)"> <g id="icn/search/default" transform="translate(849.000000, 26.000000)"> <rect id="Bounding-Box" x="0" y="0" width="24" height="24"></rect> <mask id="mask-2" fill="white"> <use xlink:href="#path-1"></use> </mask> <use id="icn/search---default" fill="#FFFFFF" opacity="0.01" xlink:href="#path-1"></use> <g id="🎨Color" mask="url(#mask-2)" fill="#57617F"> <rect id="Fill/Secondary" x="0" y="0" width="24" height="24"></rect> </g> </g> </g> </g> </g> </g> </g></svg>
