<?xml version="1.0" encoding="UTF-8"?><svg width="28px" height="20px" viewBox="0 0 28 20" version="1.1" xmlns="http://www.w3.org/2000/svg" xmlns:xlink="http://www.w3.org/1999/xlink"> <title>stripe</title> <desc>Created with Sketch.</desc> <g id="Symbol" stroke="none" stroke-width="1" fill="none" fill-rule="evenodd"> <g id="Nav/Footer/Web" transform="translate(-1205.000000, -260.000000)"> <g id="Footer"> <g id="Payments" transform="translate(1085.000000, 260.000000)"> <g id="stripe" transform="translate(120.000000, 0.000000)"> <path d="M26.1,20 L1.7,20 C0.8,20 0,19.2 0,18.3 L0,1.7 C0,0.8 0.8,0 1.7,0 L26.1,0 C27,0 27.8,0.8 27.8,1.7 L27.8,18.3 C27.8,19.2 27,20 26.1,20 Z" id="Shape" fill="#FFFFFF" fill-rule="nonzero"></path> <path d="M5.19445939,10.0484218 C4.74194513,9.87546775 4.49395262,9.74094794 4.49395262,9.52955966 C4.49395262,9.35016788 4.63654598,9.24769261 4.89072203,9.24769261 C5.35564987,9.24769261 5.83294479,9.43347408 6.16150929,9.59999039 L6.34748042,8.41496693 C6.08712083,8.28683681 5.55398808,8.07544853 4.81633358,8.07544853 C4.2956144,8.07544853 3.86165076,8.21635804 3.55172986,8.47900797 C3.2293489,8.75443729 3.06197488,9.15160703 3.06197488,9.63203493 C3.06197488,10.5031948 3.57651052,10.8747578 4.41338062,11.1886213 C4.95269691,11.3871822 5.13248451,11.5281397 5.13248451,11.7459177 C5.13248451,11.957306 4.95888045,12.0789984 4.64272952,12.0789984 C4.25219014,12.0789984 3.6075212,11.8804375 3.18597113,11.6242253 L3,12.8220762 C3.3595287,13.0334645 4.02902478,13.2512424 4.72334801,13.2512424 C5.27503138,13.2512424 5.73377568,13.1167226 6.04374307,12.8605104 C6.39085819,12.5786434 6.57064578,12.1623046 6.57064578,11.6242253 C6.57064578,10.7338002 6.04374307,10.3622853 5.19445939,10.0484218 L5.19445939,10.0484218 Z M9.59811638,9.35016788 L9.78408751,8.17153411 L8.8022994,8.17153411 L8.8022994,6.74072374 L7.48227629,6.96517965 L7.29165587,8.17153411 L6.82737894,8.24936343 L6.65358891,9.35016788 L7.28974967,9.35016788 L7.28974967,11.6626595 C7.28974967,12.2647798 7.43852658,12.6811667 7.74226393,12.9373789 C7.99643998,13.1487672 8.36215222,13.2512424 8.87668785,13.2512424 C9.27341078,13.2512424 9.51517325,13.1808117 9.68254727,13.1359397 L9.68254727,11.8868272 C9.58956171,11.9124821 9.37880992,11.957306 9.23621655,11.957306 C8.93247919,11.957306 8.8022994,11.7971794 8.8022994,11.4320541 L8.8022994,9.35016788 L9.59811638,9.35016788 L9.59811638,9.35016788 Z M12.5465027,8.10268879 C12.1125856,8.10268879 11.765424,8.33809847 11.6290606,8.76087502 L11.5360751,8.17153411 L10.1908994,8.17153411 L10.1908994,13.1551569 L11.7282298,13.1551569 L11.7282298,9.92029167 C11.9204309,9.67685886 12.1931576,9.58884446 12.5650999,9.58884446 C12.6457183,9.58884446 12.7324739,9.58884446 12.837873,9.60806158 L12.837873,8.14112303 C12.7324739,8.11551622 12.6394883,8.10268879 12.5465027,8.10268879 L12.5465027,8.10268879 Z M13.9847105,7.67827879 C14.4310412,7.67827879 14.7905699,7.3003742 14.7905699,6.83916341 C14.7905699,6.3715149 14.4310412,6 13.9847105,6 C13.5321498,6 13.1726211,6.3715149 13.1726211,6.83916341 C13.1726211,7.3003742 13.5321498,7.67827879 13.9847105,7.67827879 L13.9847105,7.67827879 Z M13.2098153,8.17153411 L14.7533757,8.17153411 L14.7533757,13.1551569 L13.2098153,13.1551569 L13.2098153,8.17153411 Z M19.1275563,8.61991747 C18.8547831,8.25479227 18.4766573,8.07544853 17.9931324,8.07544853 C17.5468016,8.07544853 17.1562622,8.26761969 16.7905035,8.67117913 L16.7099315,8.17153411 L15.3585258,8.17153411 L15.3585258,15 L16.8959027,14.7373981 L16.8959027,13.1359397 C17.1314351,13.2128082 17.3731976,13.2512424 17.5901794,13.2512424 C17.9745352,13.2512424 18.5324486,13.1487672 18.9663658,12.6619496 C19.3816858,12.1943011 19.5924841,11.4704884 19.5924841,10.5160223 C19.5924841,9.67046916 19.4374772,9.02991464 19.1275563,8.61991747 L19.1275563,8.61991747 Z M17.850539,11.694656 C17.7265427,11.9380889 17.5343881,12.066219 17.3112227,12.066219 C17.1562622,12.066219 17.0198524,12.0341744 16.8959027,11.9701334 L16.8959027,9.59999039 C17.1562622,9.31817138 17.3917947,9.28612684 17.4785967,9.28612684 C17.8691361,9.28612684 18.0612908,9.72173082 18.0612908,10.5736736 C18.0612908,11.0604912 17.9931324,11.4384438 17.850539,11.694656 L17.850539,11.694656 Z M24,10.6184975 C24,9.82420609 23.832626,9.19643095 23.5040615,8.75443729 C23.1693134,8.30605393 22.6671914,8.07544853 22.028706,8.07544853 C20.720678,8.07544853 19.908635,9.07473857 19.908635,10.6761489 C19.908635,11.5729637 20.1255704,12.2455627 20.553304,12.674729 C20.9376598,13.0590713 21.4893897,13.2512424 22.2022635,13.2512424 C22.859346,13.2512424 23.4668672,13.0911158 23.8512231,12.8284659 L23.6838491,11.739528 C23.3056768,11.9509163 22.8655761,12.066219 22.3696376,12.066219 C22.0720837,12.066219 21.8675155,12.0021299 21.7187386,11.8676101 C21.5575481,11.7267006 21.4645625,11.4960952 21.4335983,11.1694042 L23.9814029,11.1694042 C23.9875864,11.0925358 24,10.7338002 24,10.6184975 L24,10.6184975 Z M21.4211848,10.195721 C21.4645625,9.4846877 21.6505337,9.15160703 22.0038788,9.15160703 C22.3510404,9.15160703 22.530828,9.49112543 22.5556087,10.195721 L21.4211848,10.195721 L21.4211848,10.195721 Z" id="Fill-1" fill="#1A1919"></path> </g> </g> </g> </g> </g></svg>
