<?xml version="1.0" encoding="UTF-8"?><svg width="24px" height="24px" viewBox="0 0 24 24" version="1.1" xmlns="http://www.w3.org/2000/svg" xmlns:xlink="http://www.w3.org/1999/xlink"> <title>Twi</title> <desc>Created with Sketch.</desc> <g id="Symbol" stroke="none" stroke-width="1" fill="none" fill-rule="evenodd"> <g id="Nav/Header/Web" transform="translate(-1366.000000, -7.000000)"> <g id="Twi" transform="translate(1366.000000, 7.000000)"> <rect id="Rectangle-13" fill="#55ACEE" x="0" y="0" width="24" height="24" rx="4"></rect> <g id="twitter" transform="translate(6.000000, 7.000000)" fill="#FFFFFF" fill-rule="nonzero"> <path d="M11.8153846,1.13649231 C11.376,1.32923077 10.9078154,1.45698462 10.4196923,1.51901538 C10.9218462,1.2192 11.3051077,0.748061538 11.4852923,0.180184615 C11.0171077,0.459323077 10.5001846,0.656492308 9.94929231,0.766523077 C9.50473846,0.293169231 8.87113846,0 8.17993846,0 C6.83889231,0 5.75926154,1.08849231 5.75926154,2.42289231 C5.75926154,2.61489231 5.77550769,2.79950769 5.81538462,2.97526154 C3.8016,2.87704615 2.01969231,1.91187692 0.822646154,0.4416 C0.613661538,0.804184615 0.491076923,1.2192 0.491076923,1.66596923 C0.491076923,2.50486154 0.923076923,3.24849231 1.56701538,3.67901538 C1.17784615,3.67163077 0.796061538,3.55864615 0.472615385,3.38067692 C0.472615385,3.38806154 0.472615385,3.39766154 0.472615385,3.40726154 C0.472615385,4.58436923 1.31224615,5.56209231 2.41329231,5.78732308 C2.21612308,5.84123077 2.00123077,5.86707692 1.77821538,5.86707692 C1.62313846,5.86707692 1.46658462,5.85821538 1.31963077,5.82572308 C1.63347692,6.78498462 2.52406154,7.49021538 3.58301538,7.51310769 C2.75889231,8.15778462 1.71249231,8.54621538 0.579692308,8.54621538 C0.381046154,8.54621538 0.190523077,8.53735385 -5.68434189e-14,8.51298462 C1.07298462,9.20492308 2.34461538,9.6 3.71593846,9.6 C8.17329231,9.6 10.6102154,5.90769231 10.6102154,2.7072 C10.6102154,2.60012308 10.6065231,2.49673846 10.6013538,2.39409231 C11.0820923,2.05292308 11.4860308,1.62683077 11.8153846,1.13649231 Z" id="Shape"></path> </g> </g> </g> </g></svg>
