<?xml version="1.0" encoding="UTF-8"?>
<svg width="24px" height="24px" viewBox="0 0 24 24" version="1.1" xmlns="http://www.w3.org/2000/svg" xmlns:xlink="http://www.w3.org/1999/xlink">
    <title>user--avatar</title>
    <g id="Selected" stroke="none" stroke-width="1" fill="none" fill-rule="evenodd">
        <g id="Account-menu" transform="translate(-1392, -97)">
            <g id="line-copy" transform="translate(1116, 97)">
                <g id="user--avatar" transform="translate(276, 0)">
                    <path d="M12,6 C9.92893219,6 8.25,7.67893219 8.25,9.75 C8.25,11.8210678 9.92893219,13.5 12,13.5 C14.0710678,13.5 15.75,11.8210678 15.75,9.75 C15.75,8.75543816 15.3549118,7.80161099 14.6516504,7.09834957 C13.948389,6.39508815 12.9945618,6 12,6 Z M12,12 C10.7573593,12 9.75,10.9926407 9.75,9.75 C9.75,8.50735931 10.7573593,7.5 12,7.5 C13.2426407,7.5 14.25,8.50735931 14.25,9.75 C14.2485947,10.9920581 13.2420581,11.9985947 12,12 L12,12 Z" id="Shape" fill="#49463D" fill-rule="nonzero"></path>
                    <path d="M12,1.5 C6.20101013,1.5 1.5,6.20101013 1.5,12 C1.5,17.7989899 6.20101013,22.5 12,22.5 C17.7989899,22.5 22.5,17.7989899 22.5,12 C22.4934695,6.20371729 17.7962827,1.50653047 12,1.5 L12,1.5 Z M7.5,19.782375 L7.5,18.75 C7.50136403,17.5079248 8.50792475,16.501364 9.75,16.5 L14.25,16.5 C15.4920752,16.501364 16.498636,17.5079248 16.5,18.75 L16.5,19.782375 C13.7196463,21.4058762 10.2803537,21.4058762 7.5,19.782375 L7.5,19.782375 Z M17.994375,18.69435 C17.9633542,16.6475088 16.2970733,15.0034894 14.25,15 L9.75,15 C7.70292667,15.0034894 6.03664578,16.6475088 6.005625,18.69435 C3.22118315,16.2080675 2.26057568,12.2609961 3.59110359,8.77324428 C4.92163151,5.28549247 8.26707658,2.98111916 12,2.98111916 C15.7329234,2.98111916 19.0783685,5.28549247 20.4088964,8.77324428 C21.7394243,12.2609961 20.7788168,16.2080675 17.994375,18.69435 L17.994375,18.69435 Z" id="Shape" fill="#49463D" fill-rule="nonzero"></path>
                    <rect id="_Transparent_Rectangle_" x="0" y="0" width="24" height="24"></rect>
                </g>
            </g>
        </g>
    </g>
</svg>