<?xml version="1.0" encoding="UTF-8"?><svg width="28px" height="20px" viewBox="0 0 28 20" version="1.1" xmlns="http://www.w3.org/2000/svg" xmlns:xlink="http://www.w3.org/1999/xlink"> <title>visa</title> <desc>Created with Sketch.</desc> <g id="Symbol" stroke="none" stroke-width="1" fill="none" fill-rule="evenodd"> <g id="Nav/Footer/Web" transform="translate(-1125.000000, -260.000000)" fill-rule="nonzero"> <g id="Footer"> <g id="Payments" transform="translate(1085.000000, 260.000000)"> <g id="visa" transform="translate(40.000000, 0.000000)"> <path d="M26.1,20 L1.7,20 C0.8,20 0,19.2 0,18.3 L0,1.7 C0,0.8 0.8,0 1.7,0 L26.1,0 C27,0 27.8,0.8 27.8,1.7 L27.8,18.3 C27.8,19.2 27,20 26.1,20 Z" id="Shape" fill="#FFFFFF"></path> <g id="Group" transform="translate(4.000000, 7.000000)" fill="#151F6F"> <path d="M5.9,0 L4.4,4.1 L4.2,3.3 C4,2.3 3.1,1.3 2.2,0.8 L3.5,6 L5.1,6 L7.5,0 L5.9,0 L5.9,0 Z M16.4,3.6 L17,1.7 L17.5,3.6 C17.4,3.6 16.7,3.6 16.4,3.6 Z M18.1,0 L16.9,0 C16.5,0 16.3,0.1 16.1,0.5 L13.9,6 L15.5,6 L15.9,4.8 L17.7,4.8 L17.9,6 L19.3,6 L18.1,0 Z M12.7,2.4 C12.2,2.1 11.8,2 11.8,1.7 C11.8,1.5 12.1,1.2 12.7,1.2 C13.2,1.2 13.6,1.3 13.8,1.4 L14,1.5 L14.2,0.2 C13.9,0.1 13.4,0 12.8,0 C11.3,0 10.2,0.8 10.2,1.9 C10.2,2.7 11,3.2 11.5,3.5 C12.1,3.8 12.3,4 12.3,4.2 C12.3,4.6 11.8,4.8 11.4,4.8 C10.8,4.8 10.5,4.7 10,4.5 L9.8,4.4 L9.6,5.7 C10,5.9 10.6,6 11.3,6 C12.9,6 13.9,5.2 13.9,4 C14,3.3 13.6,2.8 12.7,2.4 Z M8.1,0 L7.2,6 L8.7,6 L9.6,0 L8.1,0 Z" id="Shape"></path> <path d="M4.2,0.8 C4.1,0.3 3.6,0 3.1,0 L0.5,0 L0.5,0.1 C2.5,0.6 4.2,2 4.8,3.4 L4.2,0.8 Z" id="Shape"></path> </g> </g> </g> </g> </g> </g></svg>
