<?xml version="1.0" encoding="UTF-8" standalone="no"?>
<svg width="100%" height="100%" viewBox="0 0 20 20" version="1.1" xmlns="http://www.w3.org/2000/svg" style="fill-rule:evenodd;clip-rule:evenodd;stroke-linecap:round;stroke-linejoin:round;margin-top:6px;">
    <path d="M15.983,1.041c-0,-0.291 -0.237,-0.528 -0.528,-0.528l-10.944,0c-0.292,0 -0.528,0.237 -0.528,0.528l-0,9.944c-0,0.292 0.236,0.528 0.528,0.528l10.944,0c0.291,0 0.528,-0.236 0.528,-0.528l-0,-9.944Z" style="fill:none;stroke:rgb(43,135,218);stroke-width:1px;"/>
    <path d="M7.426,4.626l5.113,0l0.574,4.174l-6.26,0l0.573,-4.174Z" style="fill:none;fill-rule:nonzero;stroke:rgb(43,135,218);stroke-width:1px;"/>
    <path d="M8.626,5.07c0,-0 -0.13,-2.27 1.435,-2.27c1.383,-0 1.252,2.27 1.252,2.27" style="fill:none;fill-rule:nonzero;stroke:rgb(43,135,218);stroke-width:1px;"/>
</svg>
