<?xml version="1.0" encoding="UTF-8" standalone="no"?>
<svg width="100%" height="100%" viewBox="0 0 20 20" version="1.1" xmlns="http://www.w3.org/2000/svg" style="fill-rule:evenodd;clip-rule:evenodd;stroke-linecap:round;stroke-linejoin:round;margin-top:6px;">
    <g transform="matrix(0.424264,0,0,0.424264,1.56048,-2.36985)">
        <path d="M19.9,24.9L19.9,28.4" style="fill:none;fill-rule:nonzero;stroke:rgb(43,135,218);stroke-width:2.36px;"/>
    </g>
    <g transform="matrix(0.424264,0,0,0.424264,1.56048,-2.36985)">
        <path d="M8.9,28.2C8.9,26.4 10.3,24.9 12.1,24.9L27.9,24.9C29.7,24.9 31.2,26.4 31.1,28.2" style="fill:none;fill-rule:nonzero;stroke:rgb(43,135,218);stroke-width:2.36px;"/>
    </g>
    <g transform="matrix(0.424264,0,0,0.424264,1.56048,-2.36985)">
        <path d="M6.8,28.4L11,28.4C11.2,28.4 11.3,28.5 11.3,28.7L11.3,32.7C11.3,32.9 11.2,33 11,33L6.8,33C6.6,33 6.5,32.9 6.5,32.7L6.5,28.7C6.5,28.6 6.6,28.4 6.8,28.4Z" style="fill:none;fill-rule:nonzero;stroke:rgb(43,135,218);stroke-width:2.36px;"/>
    </g>
    <g transform="matrix(0.424264,0,0,0.424264,1.56048,-2.36985)">
        <path d="M17.8,28.4L22,28.4C22.2,28.4 22.3,28.5 22.3,28.7L22.3,32.7C22.3,32.9 22.2,33 22,33L17.8,33C17.6,33 17.5,32.9 17.5,32.7L17.5,28.7C17.4,28.6 17.6,28.4 17.8,28.4Z" style="fill:none;fill-rule:nonzero;stroke:rgb(43,135,218);stroke-width:2.36px;"/>
    </g>
    <g transform="matrix(0.424264,0,0,0.424264,1.56048,-2.36985)">
        <path d="M29,28.4L33.2,28.4C33.4,28.4 33.5,28.5 33.5,28.7L33.5,32.7C33.5,32.9 33.4,33 33.2,33L29,33C28.8,33 28.7,32.9 28.7,32.7L28.7,28.7C28.7,28.6 28.9,28.4 29,28.4Z" style="fill:none;fill-rule:nonzero;stroke:rgb(43,135,218);stroke-width:2.36px;"/>
    </g>
    <g transform="matrix(0.424264,0,0,0.381928,1.56048,-2.07349)">
        <rect x="10.9" y="7" width="17.9" height="15.8" style="fill:none;stroke:rgb(43,135,218);stroke-width:2.36px;"/>
    </g>
    <g transform="matrix(0.424264,0,0,0.424264,1.56048,-2.36985)">
        <path d="M22.3,7.24L22.3,15.037L19.9,13.037L17.4,15.037L17.4,7.24" style="fill:none;fill-rule:nonzero;stroke:rgb(43,135,218);stroke-width:2.36px;"/>
    </g>
</svg>
