<?xml version="1.0" encoding="UTF-8" standalone="no"?>
<svg width="100%" height="100%" viewBox="0 0 20 20" version="1.1" xmlns="http://www.w3.org/2000/svg" style="fill-rule:evenodd;clip-rule:evenodd;stroke-linecap:round;stroke-linejoin:round;margin-top:6px;">
    <g transform="matrix(0.493351,0,0,0.493351,0.150272,-4.08683)">
        <rect x="7.5" y="9.5" width="12" height="9.5" style="fill:none;stroke:rgb(43,135,218);stroke-width:2.03px;"/>
    </g>
    <g transform="matrix(0.493351,0,0,0.493351,0.150272,-4.08683)">
        <path d="M19.954,22.5L19.954,25.9" style="fill:none;fill-rule:nonzero;stroke:rgb(43,135,218);stroke-width:2.03px;"/>
    </g>
    <g transform="matrix(0.493351,0,0,0.493351,0.126466,-4.08683)">
        <path d="M9.9,22.5L26.878,22.5C28.678,22.5 30.178,24 30.078,25.8" style="fill:none;fill-rule:nonzero;stroke:rgb(43,135,218);stroke-width:2.03px;"/>
    </g>
    <g transform="matrix(0.493351,0,0,0.493351,0.150272,-4.08683)">
        <path d="M7.8,25.9L12,25.9C12.2,25.9 12.3,26 12.3,26.2L12.3,30.2C12.3,30.4 12.2,30.5 12,30.5L7.8,30.5C7.6,30.5 7.5,30.4 7.5,30.2L7.5,26.2C7.5,26.1 7.6,25.9 7.8,25.9Z" style="fill:none;fill-rule:nonzero;stroke:rgb(43,135,218);stroke-width:2.03px;"/>
    </g>
    <g transform="matrix(0.493351,0,0,0.493351,0.150272,-4.08683)">
        <path d="M17.854,25.9L22.054,25.9C22.254,25.9 22.354,26 22.354,26.2L22.354,30.2C22.354,30.4 22.254,30.5 22.054,30.5L17.854,30.5C17.654,30.5 17.554,30.4 17.554,30.2L17.554,26.2C17.554,26.1 17.654,25.9 17.854,25.9Z" style="fill:none;fill-rule:nonzero;stroke:rgb(43,135,218);stroke-width:2.03px;"/>
    </g>
    <g transform="matrix(0.493351,0,0,0.493351,0.126466,-4.08683)">
        <path d="M27.978,25.9L32.178,25.9C32.378,25.9 32.478,26 32.478,26.2L32.478,30.2C32.478,30.4 32.378,30.5 32.178,30.5L27.978,30.5C27.778,30.5 27.678,30.4 27.678,30.2L27.678,26.2C27.678,26 27.778,25.9 27.978,25.9Z" style="fill:none;fill-rule:nonzero;stroke:rgb(43,135,218);stroke-width:2.03px;"/>
    </g>
    <g transform="matrix(0.493351,0,0,0.493351,0.150272,-4.08683)">
        <path d="M9.9,25.9L9.9,19" style="fill:none;fill-rule:nonzero;stroke:rgb(43,135,218);stroke-width:2.03px;"/>
    </g>
</svg>
