<?xml version="1.0" encoding="UTF-8" standalone="no"?>
<svg width="100%" height="100%" viewBox="0 0 20 20" version="1.1" xmlns="http://www.w3.org/2000/svg" style="fill-rule:evenodd;clip-rule:evenodd;stroke-linecap:round;stroke-linejoin:round;margin-top:6px;">
    <g transform="matrix(0.514742,0,0,0.514742,-0.454872,-4.75949)">
        <path d="M11.3,22.6C11.7,24.5 17.9,32.8 19.5,31.4C19.9,31 19.7,30.4 20,30.2C20.5,29.8 21.2,30.4 21.6,30C22.1,29.6 21.6,29 22,28.7C22.4,28.3 23,28.9 23.5,28.5C24,28.1 23.5,27.5 23.9,27.1C24.4,26.6 24.7,27.1 25.2,26.7C26.6,25.5 22.3,21.9 21.2,21.1C20.1,20.2 16.7,25.5 15.1,22C15.1,22 16.9,19.8 18,19C19,18.2 22.3,17.5 23.7,17.8" style="fill:none;fill-rule:nonzero;stroke:rgb(43,135,218);stroke-width:1.94px;"/>
    </g>
    <g transform="matrix(0.514742,0,0,0.514742,-0.454872,-4.75949)">
        <path d="M28.6,22.7L25.5,25.5" style="fill:none;fill-rule:nonzero;stroke:rgb(43,135,218);stroke-width:1.94px;"/>
    </g>
    <g transform="matrix(0.514742,0,0,0.514742,-0.454872,-4.75949)">
        <path d="M16.9,16.9C18.5,16.7 20.4,17.9 20.4,17.9" style="fill:none;fill-rule:nonzero;stroke:rgb(43,135,218);stroke-width:1.94px;"/>
    </g>
    <g transform="matrix(0.514742,0,0,0.514742,-0.454872,-4.75949)">
        <path d="M18.7,15.1L10.1,23.6L5.5,19.1L14.1,10.5L18.7,15.1Z" style="fill:none;fill-rule:nonzero;stroke:rgb(43,135,218);stroke-width:1.94px;"/>
    </g>
    <g transform="matrix(0.514742,0,0,0.514742,-0.454872,-4.75949)">
        <path d="M29.9,23.9L21.3,15.4L25.9,10.8L34.5,19.4L29.9,23.9Z" style="fill:none;fill-rule:nonzero;stroke:rgb(43,135,218);stroke-width:1.94px;"/>
    </g>
</svg>
