<?xml version="1.0" encoding="utf-8"?>
<!-- Generator: Adobe Illustrator 24.3.0, SVG Export Plug-In . SVG Version: 6.00 Build 0)  -->
<svg version="1.1" id="Layer_1" xmlns="http://www.w3.org/2000/svg" xmlns:xlink="http://www.w3.org/1999/xlink" x="0px" y="0px"
	 viewBox="0 0 40 40" style="enable-background:new 0 0 40 40;" xml:space="preserve">
<style type="text/css">
	.st0{fill:none;stroke:#2B87DA;stroke-width:0.5;stroke-linecap:round;stroke-linejoin:round;}
	.st1{fill:#FFFFFF;stroke:#2B87DA;stroke-width:0.5;stroke-linecap:round;stroke-linejoin:round;}
</style>
<line class="st0" x1="20" y1="26.7" x2="20" y2="30.2"/>
<path class="st0" d="M8.9,30c0-1.8,1.4-3.3,3.2-3.3c0,0,0,0,0,0h15.9c1.8,0,3.3,1.5,3.2,3.3"/>
<path class="st0" d="M6.8,30.2h4.2c0.2,0,0.3,0.1,0.3,0.3v4c0,0.2-0.1,0.3-0.3,0.3H6.8c-0.2,0-0.3-0.1-0.3-0.3v-4
	C6.5,30.4,6.6,30.2,6.8,30.2z"/>
<path class="st0" d="M17.9,30.2h4.2c0.2,0,0.3,0.1,0.3,0.3v4c0,0.2-0.1,0.3-0.3,0.3h-4.2c-0.2,0-0.3-0.1-0.3-0.3v-4
	C17.5,30.4,17.7,30.2,17.9,30.2z"/>
<path class="st0" d="M29.2,30.2h4.2c0.2,0,0.3,0.1,0.3,0.3v4c0,0.2-0.1,0.3-0.3,0.3h-4.2c-0.2,0-0.3-0.1-0.3-0.3v-4
	C28.9,30.4,29.1,30.2,29.2,30.2z"/>
<rect x="10.9" y="8.8" class="st1" width="18" height="15.8"/>
<polyline class="st0" points="22.4,8.8 22.4,15.4 20,13.4 17.5,15.4 17.5,8.8 "/>
</svg>
