<svg id="Layer_1" data-name="Layer 1" xmlns="http://www.w3.org/2000/svg" viewBox="0 0 40 40">
  <defs>
    <style>
      .cls-1 {
        fill: none;
        stroke: #2b87da;
        stroke-linecap: round;
        stroke-linejoin: round;
        stroke-width: 0.5px;
      }
    </style>
  </defs>
  <rect class="cls-1" x="7" y="12.28" width="12.06" height="9.5"/>
  <rect class="cls-1" x="20.98" y="12.28" width="12.06" height="9.5"/>
  <polyline class="cls-1" points="28.5 12.4 28.5 17.04 26.79 15.66 25.05 17.04 25.05 12.4"/>
  <polyline class="cls-1" points="14.76 12.4 14.76 17.04 13.04 15.66 11.3 17.04 11.3 12.4"/>
  <polyline class="cls-1" points="14.76 23.71 14.76 28.34 13.04 26.97 11.3 28.34 11.3 23.71"/>
  <polyline class="cls-1" points="28.78 23.71 28.78 28.34 27.07 26.97 25.32 28.34 25.32 23.71"/>
  <rect class="cls-1" x="7" y="23.64" width="12.06" height="9.5"/>
  <rect class="cls-1" x="21.02" y="23.64" width="12.06" height="9.5"/>
  <line class="cls-1" x1="8.41" y1="20" x2="11.59" y2="20"/>
  <line class="cls-1" x1="8.41" y1="31.32" x2="11.59" y2="31.32"/>
  <line class="cls-1" x1="22.43" y1="31.32" x2="25.61" y2="31.32"/>
  <line class="cls-1" x1="22.43" y1="20" x2="25.61" y2="20"/>
</svg>
